<svg xmlns="http://www.w3.org/2000/svg" viewBox="0 0 89.87 51.68"><defs><style>.cls-1{fill:#494b54;}.cls-2{fill:#292b37;}</style></defs><g id="Capa_2" data-name="Capa 2"><g id="Vista2"><path class="cls-1" d="M51.65,12.3c-1.4-1.3-2.7-2.71-4.13-4-3.35-3-6.67-6-11-7.6-3.19-1.18-6.35-1-8.89,1.37s-5.79,3.48-9.24,4C14.7,6.67,10.93,6.8,7.32,8,3.23,9.4.78,12.14.26,16.4A29.52,29.52,0,0,0,3.31,34.22c3.17,5.94,8,9.73,15,10.18a11.08,11.08,0,0,1,5.08,1.41c2.26,1.34,4.44,2.83,6.72,4.15,3.73,2.18,7.64,2.45,11.2-.1a35.74,35.74,0,0,0,15-24.94C56.3,19.07,54.91,15.31,51.65,12.3ZM40.39,47.42c-3.11,2.33-6.61,2.39-10.06.48a28.88,28.88,0,0,1-3.38-2,18.3,18.3,0,0,0-9.09-3.42c-6.45-.74-10.48-4.92-13-10.59A28.1,28.1,0,0,1,2.78,17.92c.43-5.16,3.76-8.15,9.81-9.07,3.32-.51,6.69-.67,10-1.57a9.06,9.06,0,0,0,4.17-2.15c3.42-3.43,7.07-3.37,11-1.16A50.07,50.07,0,0,1,51.25,15.69c1.91,2.25,2.41,5.08,2.41,8A32.89,32.89,0,0,1,40.39,47.42Z"/><path class="cls-1" d="M26.19,33A9,9,0,1,1,35.3,24.3,8.95,8.95,0,0,1,26.19,33Z"/><path class="cls-1" d="M19.53,21.41c.56-2.74,2-3.93,5.19-4.18C22.44,18.27,20.64,19.44,19.53,21.41Z"/><path class="cls-1" d="M89.77,35.82c0,.88,0,1.77,0,2.65a1.55,1.55,0,0,1-1.46,1.74L73,42.8,57.16,45.47l-15.7,2.64-6.94,1.18a1.84,1.84,0,0,1-2.4-1.07V40.78a1.47,1.47,0,0,1,1.55-1.1,1.58,1.58,0,0,0,1.09-.34,1.67,1.67,0,0,0,.4-1.8,1.5,1.5,0,0,0-1.46-.84,1.31,1.31,0,0,1-1.58-1.11V29.5c.31-.5.4-1.1.71-1.61a11,11,0,0,1,2.5-2.73c1.13-.94,2.27-1.86,3.38-2.81a2.14,2.14,0,0,1,2.23-.49,4.66,4.66,0,0,0,2.93,0,2.33,2.33,0,0,0,.84-.44.78.78,0,0,0,0-1.3,3.68,3.68,0,0,0-.7-.46.91.91,0,0,1-.34-1.39,2.82,2.82,0,0,1,.68-.74L58.09,5.88a3.23,3.23,0,0,1,2.24-.77,39.23,39.23,0,0,1,20.2,5.69,38.39,38.39,0,0,1,7.81,6.34A5.42,5.42,0,0,1,89.76,20c0,.09,0,.19.11.23v2.94a25.3,25.3,0,0,0-.06,2.89c0,.31,0,.63,0,1v6C89.79,33.94,89.85,34.88,89.77,35.82Z"/><path class="cls-2" d="M33.94,47.53c0-1.89,0-3.74,0-5.6,0-.29.18-.28.36-.31a3.47,3.47,0,0,0,.21-6.83c-.47-.07-.59-.23-.58-.69,0-1.3,0-2.6,0-3.89,0-.85.16-1,1-1.16l19.26-3.24c2.68-.45,5.37-.89,8-1.36.36-.06.4.1.43.38a4.7,4.7,0,0,0,8,2.82,4.19,4.19,0,0,0,1.13-4.45c-.13-.4.1-.33.31-.36l15.38-2.57c.33-.05.53,0,.53.39,0,.22,0,.45,0,.67,0,5.51-.08,11-.09,16.52,0,.5-.19.61-.62.68-5,.84-10.07,1.7-15.1,2.55L55.86,43.83,39.49,46.6Z"/><path class="cls-2" d="M87.05,18.49l-6.5,1.09-9.83,1.63a1.2,1.2,0,0,1-.85-.14,6,6,0,0,0-5.57.1,2,2,0,0,0-.91.81c-.26.5-.69.56-1.15.64L43.41,25.74l-6.94,1.15a2.05,2.05,0,0,1-.36,0l3.83-3.18c.25-.2.54-.06.81,0a6.58,6.58,0,0,0,4.39-.42,3.44,3.44,0,0,0,1.53-1.37,2.33,2.33,0,0,0-.38-2.9c-.3-.32-.29-.49.05-.78q6.44-5.43,12.85-10.9a1.59,1.59,0,0,1,1.13-.4A36.47,36.47,0,0,1,86.91,18.29Z"/><path class="cls-2" d="M67.36,22.25a6.49,6.49,0,0,1,.77.11,2.32,2.32,0,0,1,2.06,2A2.79,2.79,0,0,1,68.48,27a2.86,2.86,0,0,1-4-2.87,1.66,1.66,0,0,1,1.29-1.58A4.87,4.87,0,0,1,67.36,22.25Z"/><path class="cls-1" d="M48.88,28.27a4.86,4.86,0,0,1,5,4.86,5,5,0,0,1-10-.05A4.87,4.87,0,0,1,48.88,28.27Z"/><path class="cls-1" d="M59,12.47a4.83,4.83,0,0,1,3.52,1.31,2.87,2.87,0,0,1,0,4.24,5.38,5.38,0,0,1-6.67.31c-2-1.6-1.56-4.35.89-5.4A5.3,5.3,0,0,1,59,12.47Z"/><path class="cls-2" d="M48.89,36.06a3,3,0,1,1,0-5.9,3,3,0,1,1,0,5.9Z"/><path class="cls-2" d="M59,17.45a3.06,3.06,0,0,1-2-.62A1.08,1.08,0,0,1,56.91,15a3.59,3.59,0,0,1,4.23,0,1.07,1.07,0,0,1,0,1.8A3.09,3.09,0,0,1,59,17.45Z"/></g></g></svg>