<svg xmlns="http://www.w3.org/2000/svg" viewBox="0 0 71.16 50.83"><defs><style>.cls-1{fill:#494b54;}</style></defs><g id="Capa_2" data-name="Capa 2"><g id="Vista2"><path class="cls-1" d="M36.72,0A25.42,25.42,0,1,0,62.14,25.42,25.42,25.42,0,0,0,36.72,0ZM55.23,20.77c.07.27.15.53.21.81s.12.79.18,1.19c0,.23.08.46.1.7a19.06,19.06,0,0,1,0,3.9c0,.23-.07.46-.1.7-.06.4-.1.8-.18,1.19s-.14.53-.21.8-.16.69-.26,1-.21.57-.32.86-.2.6-.32.89-.28.59-.43.88-.24.53-.37.78-.36.61-.55.91-.26.45-.4.66-.45.61-.68.91-.27.38-.42.56-.53.6-.8.89-.27.31-.42.46-.61.57-.92.84c-.15.13-.28.27-.43.39-.33.28-.68.53-1,.78-.15.11-.28.22-.43.32-.36.25-.75.47-1.13.69-.14.09-.29.19-.44.27-.39.21-.79.4-1.2.59l-.46.22c-.41.17-.83.32-1.25.46-.17.06-.33.13-.5.18-.42.14-.85.24-1.28.34l-.54.14c-.42.09-.86.15-1.29.21-.2,0-.4.07-.6.09-.42,0-.85.06-1.28.07-.21,0-.41,0-.62,0h-.14a19.11,19.11,0,0,1,0-38.21h.14c.17,0,.33,0,.5,0,.47,0,1,0,1.41.08.16,0,.32.05.49.07.47.06.94.13,1.4.22l.44.12c.47.11.93.22,1.38.36l.41.15c.45.16.9.31,1.33.5l.4.19c.43.19.85.39,1.26.62.14.07.26.16.39.23.4.23.8.47,1.18.72l.39.3c.36.26.73.52,1.07.8.14.12.26.25.4.36.32.29.65.57.95.87l.4.45c.28.3.56.59.82.91.15.17.27.36.41.54s.47.6.69.92.26.44.39.66.39.6.56.91.25.52.37.78.3.58.43.89.21.59.32.89.23.57.32.86S55.14,20.43,55.23,20.77Zm-.54,4.65a18,18,0,1,1-18-18A18,18,0,0,1,54.69,25.42ZM71.16,5.57v42a2.4,2.4,0,0,1-1.67,2.33h0a2.11,2.11,0,0,1-.56.09,2.27,2.27,0,0,1-2.24-2.43c.44-4,2.75-12.61,1.56-16-.68-2-3.18-5.51-3.18-11.4,0-11,2.57-14.88,4.35-15.79l.07,0A1.26,1.26,0,0,1,71.16,5.57Zm-63-1.12a109.34,109.34,0,0,1,1,13c0,4-.82,4-3.22,4.95L6.8,47.68a2.35,2.35,0,0,1-2.23,2.44,1.65,1.65,0,0,1-.32,0h0a2.36,2.36,0,0,1-1.91-2.39l.88-25.25C.82,21.47,0,21.52,0,17.48a112.4,112.4,0,0,1,1-13h.57l.13,14.28H2.88L3.17,4.45h.56L4,18.73H5.16L5.44,4.45h.61l.26,14.28H7.48l.1-14.28Z"/></g></g></svg>