<svg xmlns="http://www.w3.org/2000/svg" viewBox="0 0 11.5 13.61"><defs><style>.cls-1{fill:#fff;}</style></defs><g id="Capa_2" data-name="Capa 2"><g id="Vista2"><path class="cls-1" d="M10,1.94H8.21c-.4,0-.36,0-.37-.38A1.41,1.41,0,0,0,6.4,0H5.16a2,2,0,0,0-.49.05,1.46,1.46,0,0,0-1,1.58c0,.23-.05.32-.28.31-.64,0-1.28,0-1.92,0A1.44,1.44,0,0,0,0,3.51v.61c0,.59.13.75.68.74.21,0,.28,0,.3.28q.3,3.56.62,7.11A1.3,1.3,0,0,0,3,13.61H8.6a1.3,1.3,0,0,0,1.3-1.32q.3-3.49.61-7c0-.42,0-.42.43-.44s.55-.18.56-.6V3.49A1.44,1.44,0,0,0,10,1.94ZM5.22,1C5.6,1,6,1,6.35,1a.61.61,0,0,1,.57.87c0,.11-.12.07-.19.09h-1c-.33,0-.66,0-1,0-.16,0-.21-.06-.21-.22C4.56,1.14,4.7,1,5.22,1ZM9.6,5.26c-.12,1.44-.25,2.88-.38,4.31-.07.83-.15,1.66-.22,2.49,0,.49-.12.58-.57.58H3c-.39,0-.49-.1-.52-.51-.21-2.32-.41-4.64-.62-7,0-.26.05-.3.27-.3H9.27C9.63,4.87,9.63,4.87,9.6,5.26Zm1-1.5c0,.17-.16.12-.25.12H5.73c-1.47,0-3,0-4.42,0-.13,0-.33.12-.39-.14A.63.63,0,0,1,1.22,3a.76.76,0,0,1,.3-.05H10C10.46,2.92,10.7,3.27,10.58,3.76Z"/><path class="cls-1" d="M3.87,11.31a.59.59,0,0,1-.38-.57L3.16,6.57c0-.36.09-.56.35-.63s.52.13.56.51c.07.93.14,1.86.22,2.79,0,.46.07.93.11,1.39a.58.58,0,0,1-.33.67A.15.15,0,0,1,3.87,11.31Z"/><path class="cls-1" d="M7.1,10.58c.11-1.33.21-2.67.32-4a1.64,1.64,0,0,1,0-.22c.06-.29.25-.46.49-.43a.47.47,0,0,1,.41.51c0,.25,0,.5-.05.75C8.19,8.38,8.1,9.58,8,10.77c0,.41-.33.64-.63.49S7.07,10.86,7.1,10.58Z"/><path class="cls-1" d="M5.3,8.6v-2c0-.11,0-.21,0-.31a.44.44,0,0,1,.4-.4.42.42,0,0,1,.45.3.93.93,0,0,1,0,.33v4.27a.47.47,0,0,1-.45.47.44.44,0,0,1-.44-.48c0-.39,0-.79,0-1.19Z"/></g></g></svg>