<svg xmlns="http://www.w3.org/2000/svg" viewBox="0 0 44.43 42.14"><defs><style>.cls-1{fill:#494b54;}</style></defs><g id="Capa_2" data-name="Capa 2"><g id="Vista1"><g id="Iconos"><path class="cls-1" d="M7.64,35.8H35.32v6.34H7.64ZM44.3,14.54c-1,7.15-8.88,7.29-8.88,7.29L35.29,35H7.67L7.59,22S1.09,20.81.23,16.78a9.32,9.32,0,0,1,3.51-9.7c6.2-4.53,11.69.74,11.69.74s0-2.08-3.95-3.41C13.33.83,22.84-2.53,28.1,2.71c4.34,4.32,4.5,8.07,3.7,10.45,2-2.24,1.78-6.42-.85-9.28C38.36,1.92,45.45,6.67,44.3,14.54ZM11.62,24.9a55.45,55.45,0,0,1,.5,8.21C13.05,33.05,12.55,27.64,11.62,24.9ZM16,18.55a66.25,66.25,0,0,1,1.24,10.83c-.06,2.24,0,3.73,0,3.73H18S18.73,23.16,16,18.55Zm7.07,14.56S22.63,17.87,20.64,14c0,0,1.72,11.94,1.57,19.16Zm6.86-15.24a31.79,31.79,0,0,0-2.53,11.51c0,2.24,0,3.73,0,3.73h.74S28,23.82,29.92,17.87Zm2.34,8.18c-.94,2.35-1.43,7-.5,7.06A39.81,39.81,0,0,1,32.26,26.05Z"/></g></g></g></svg>