<svg xmlns="http://www.w3.org/2000/svg" viewBox="0 0 70.72 56.83"><defs><style>.cls-1{fill:#494b54;}</style></defs><g id="Capa_2" data-name="Capa 2"><g id="Vista2"><path class="cls-1" d="M41.91,51.94a5.06,5.06,0,0,0,.88-1.61A3.47,3.47,0,0,0,42.13,47a18.85,18.85,0,0,0-5.66-4.77.91.91,0,0,1-.49-.56,2.27,2.27,0,0,0-1.07-1.25.76.76,0,0,1-.39-.63c-.19-2.85-.39-5.7-.46-8.56,0-.82.11-.93.95-.93H60.58c.93,0,1.18.24,1.16,1.15-.07,3.61-.38,7.2-.63,10.79a10.35,10.35,0,0,1-2.34,6.18A9.81,9.81,0,0,1,51,52h-8.3A1.55,1.55,0,0,1,41.91,51.94Z"/><path class="cls-1" d="M33.23,39.32a21.75,21.75,0,0,0-4.89-1.81.5.5,0,0,1-.34-.34A2.12,2.12,0,0,0,26.69,36a14.39,14.39,0,0,0-7.13-.59c-1.07.16-1.06.18-1.06-.92,0-4.37,0-8.75,0-13.12,0-.5.13-.62.62-.62q8.07,0,16.15,0c.5,0,.66.12.66.65,0,2.35,0,4.71,0,7.06,0,.43-.1.63-.55.57a3.86,3.86,0,0,0-.68,0A1.77,1.77,0,0,0,32.85,31c0,2.54.2,5.07.37,7.6C33.24,38.79,33.23,39,33.23,39.32Z"/><path class="cls-1" d="M30.37,53.24q14.76,0,29.51,0c.58,0,.78.18.71.74,0,.31,0,.63,0,1a1.86,1.86,0,0,1-1.92,1.9H2.12A1.92,1.92,0,0,1,0,54.71c0-1.47,0-1.47,1.43-1.47Z"/><path class="cls-1" d="M22,52c-1.35,0-2.69,0-4,0-.38,0-.56-.09-.65-.49a33.25,33.25,0,0,1-.38-13.29,1.28,1.28,0,0,1,.94-1.13,13.48,13.48,0,0,1,8.47,0,1.16,1.16,0,0,1,.76,1,31,31,0,0,1,.49,6.3,31.09,31.09,0,0,1-.85,7c-.1.42-.26.58-.71.56C24.64,52,23.29,52,22,52Z"/><path class="cls-1" d="M27.17,19.57c-2.69,0-5.38,0-8.07,0-.51,0-.62-.16-.61-.64,0-1.73,0-3.47,0-5.21,0-.63.12-.74.76-.75,1,0,1,0,.83-1-.33-1.73-.67-3.45-1-5.18a.83.83,0,0,0-.52-.65c-2.41-1.27-4.82-2.56-7.22-3.84A2.61,2.61,0,0,1,10.8,2,1.14,1.14,0,0,1,10.65.48,1.11,1.11,0,0,1,12.09.13c1.14.57,2.25,1.18,3.37,1.78,1.54.81,3.06,1.65,4.61,2.43a2,2,0,0,1,1.2,1.6c.36,2.14.82,4.26,1.19,6.4.09.54.31.66.83.66,3.89,0,7.78,0,11.67,0,.85,0,.94.08.94.91,0,1.68,0,3.37,0,5,0,.55-.19.64-.67.63C32.56,19.56,29.86,19.57,27.17,19.57Z"/><path class="cls-1" d="M30.85,52c-.84,0-1.68,0-2.53,0-.39,0-.52-.06-.41-.5a32,32,0,0,0,.85-7.61,32,32,0,0,0-.31-4.69c-.06-.38,0-.48.39-.36a20.64,20.64,0,0,1,5.1,2.27,2.07,2.07,0,0,1,1,1.66,20.27,20.27,0,0,1-.92,8.68.68.68,0,0,1-.8.55C32.46,52,31.65,52,30.85,52Z"/><path class="cls-1" d="M13.11,52c-.8,0-1.61,0-2.41,0a.61.61,0,0,1-.69-.48,16.3,16.3,0,0,1-1-5.21,24.87,24.87,0,0,1,.12-3.86,1.45,1.45,0,0,1,.61-1.07A17.62,17.62,0,0,1,15.16,39c.29-.09.36,0,.32.29a34.89,34.89,0,0,0-.28,5.87A30.38,30.38,0,0,0,16,51.52c.1.41,0,.52-.4.51C14.79,52,14,52,13.11,52Z"/><path class="cls-1" d="M70.72,37.85c-.11,2.34-1.63,4.58-4.06,6.27a9.22,9.22,0,0,1-4.43,1.61c-.38,0-.61,0-.43-.5s.13-1.23.45-1.65,1.06-.33,1.59-.55a7.25,7.25,0,0,0,4.48-4.77,4.28,4.28,0,0,0,0-2.38,2.43,2.43,0,0,0-3-1.8,5.31,5.31,0,0,0-1.94.83c-.14.09-.3.23-.46.11s-.08-.28-.07-.42c0-.6.08-1.19.08-1.79,0-.33.23-.39.44-.5C67.16,30.54,70.73,32.88,70.72,37.85Z"/><path class="cls-1" d="M56.13,11a6.79,6.79,0,0,1-1,3.6,20.39,20.39,0,0,0-1.59,3.21,2.81,2.81,0,0,0,.69,3.23,1.15,1.15,0,1,1-1.63,1.61A5.1,5.1,0,0,1,51.46,17,17.51,17.51,0,0,1,53,13.8a4.51,4.51,0,0,0-.47-5.87c-.14-.17-.3-.34-.43-.52a1.18,1.18,0,0,1,.17-1.49,1.16,1.16,0,0,1,1.54,0A7.15,7.15,0,0,1,56.13,11Z"/><path class="cls-1" d="M45.72,11.23A7.53,7.53,0,0,1,44.56,15,12.15,12.15,0,0,0,43,18.45,2.52,2.52,0,0,0,43.76,21a1.24,1.24,0,0,1,.44,1.3,1.1,1.1,0,0,1-1.79.56A4.81,4.81,0,0,1,40.7,18.2a12.53,12.53,0,0,1,1.8-4.26c1.41-2.38,1.25-4.15-.58-6.23-.7-.8-.48-1.82.44-2a1.08,1.08,0,0,1,1.08.3A7.53,7.53,0,0,1,45.72,11.23Z"/><path class="cls-1" d="M36.3,43.49a12.17,12.17,0,0,1,2.06,1.39,20.14,20.14,0,0,1,2.78,2.76,2.44,2.44,0,0,1,.36,2.72,2.28,2.28,0,0,1-2.25,1.44c-1.22,0-2.43.05-3.64.09-.3,0-.39-.06-.29-.38a19.82,19.82,0,0,0,1-7.68A1.7,1.7,0,0,1,36.3,43.49Z"/><path class="cls-1" d="M7.79,43.72c0,1.17,0,2.21,0,3.25a17.63,17.63,0,0,0,.86,4.44c.12.37.07.5-.34.48-1.29,0-2.58,0-3.86-.11a2.17,2.17,0,0,1-1.93-1.42,2.33,2.33,0,0,1,.19-2.5A19.44,19.44,0,0,1,7.79,43.72Z"/></g></g></svg>