<svg xmlns="http://www.w3.org/2000/svg" xmlns:xlink="http://www.w3.org/1999/xlink" viewBox="0 0 285 380.88"><defs><style>.cls-1,.cls-2{stroke:#fff;stroke-width:4px;}.cls-1,.cls-2,.cls-21,.cls-22{stroke-miterlimit:10;}.cls-1{fill:url(#linear-gradient);}.cls-2{fill:url(#linear-gradient-2);}.cls-3{fill:#ff9e3e;}.cls-4{opacity:0.2;}.cls-5{fill:#650000;}.cls-24,.cls-6{fill:#fff;}.cls-7{opacity:0.6;}.cls-8{fill:#75c114;}.cls-9{fill:#445c22;}.cls-10{fill:#f70808;}.cls-11{fill:#5e2828;}.cls-12{fill:#ff7878;}.cls-13{fill:#a04724;}.cls-14{fill:#5c3422;}.cls-15{fill:#ffcf06;}.cls-16{fill:#75582b;}.cls-17{fill:#ffb545;}.cls-18{fill:#ff3131;}.cls-19{fill:#11116d;}.cls-20{fill:#1595ff;}.cls-21,.cls-22{stroke:#650000;stroke-width:3px;}.cls-21{fill:url(#linear-gradient-3);}.cls-22{fill:url(#linear-gradient-4);}.cls-23{fill:#ffc730;}.cls-24{font-size:60.58px;font-family:BOOTLE;}.cls-25{letter-spacing:0.12em;}.cls-26{letter-spacing:0.14em;}.cls-27{letter-spacing:0.07em;}.cls-28{letter-spacing:0.13em;}.cls-29{letter-spacing:0.12em;}.cls-30{fill:#f6c12b;}</style><linearGradient id="linear-gradient" x1="162.71" y1="1362.58" x2="162.71" y2="-1148.62" gradientUnits="userSpaceOnUse"><stop offset="0" stop-color="#fffb90"/><stop offset="0.14" stop-color="#fbea78"/><stop offset="0.24" stop-color="#f8dc65"/><stop offset="0.27" stop-color="#e3be53"/><stop offset="0.33" stop-color="#c8973b"/><stop offset="0.37" stop-color="#b47a29"/><stop offset="0.41" stop-color="#a8691f"/><stop offset="0.45" stop-color="#a4631b"/><stop offset="0.49" stop-color="#996c22"/><stop offset="0.52" stop-color="#9d7126"/><stop offset="0.56" stop-color="#aa8131"/><stop offset="0.6" stop-color="#be9b42"/><stop offset="0.64" stop-color="#dabe5b"/><stop offset="0.69" stop-color="#fbe878"/><stop offset="0.77" stop-color="#ffa"/><stop offset="0.83" stop-color="#fbe878"/><stop offset="1" stop-color="#a4631b"/></linearGradient><linearGradient id="linear-gradient-2" x1="112.72" y1="43.43" x2="112.72" y2="43.41" xlink:href="#linear-gradient"/><linearGradient id="linear-gradient-3" x1="112.51" y1="44.25" x2="112.51" y2="44.09" xlink:href="#linear-gradient"/><linearGradient id="linear-gradient-4" x1="180.73" y1="483.91" x2="180.73" y2="-402.25" xlink:href="#linear-gradient"/></defs><g id="Capa_2" data-name="Capa 2"><g id="Vista1"><path class="cls-1" d="M278.39,134.92c-.32-1.55-1.28-5-3.72-6.73a5.55,5.55,0,0,0-3.66-1,8.66,8.66,0,0,0-6.93-1.39c-1.23-3.43-4.31-10.79-8.62-12.66a5.26,5.26,0,0,0-4.52.1c-4,2-2.14,7.71-.49,12.78a29.22,29.22,0,0,1,1.57,6,30,30,0,0,0,.31,5.66,7,7,0,0,0-3.41,5.35,10.84,10.84,0,0,0,0,2.55,49.36,49.36,0,0,1-7.64,3.53c-.45-1.14-.85-2-1.11-2.63,1.64-3.87,8.11-21.5-1.06-39.25A46.9,46.9,0,0,0,228.62,93.9l1.41.52,0,0,.06,0q7.92-9.21,16.35-18.08h0a19.92,19.92,0,0,0,3.94-2.85,21.55,21.55,0,0,0,2.17-2.39l.52-.69c.14-.21.27-.38.45-.69a10,10,0,0,0,.81-1.64,11.17,11.17,0,0,0,.24-7.39A14,14,0,0,0,250.09,54a14.73,14.73,0,0,0-1.71-1.22l-.22-.14-.26-.15-.44-.24c-.39-.2-.71-.35-1.06-.49a12,12,0,0,0-4.31-.89H242a9.59,9.59,0,0,0-7.11,2.67,8.46,8.46,0,0,0-1.08,1.34l-.22.35a1.62,1.62,0,0,1-.1.18l0,.07-.07.14c0,.12-.08.16-.14.33s-.12.32-.17.48a6.5,6.5,0,0,0-.1,3.41,7.63,7.63,0,0,0,3.63,4.73l.59.31.11.06h0l.06,0,.12,0,.27.1a5.48,5.48,0,0,0,1.33.33l.64,0a5.39,5.39,0,0,0,1.59-.23,3.91,3.91,0,0,0,2.16-1.55,3.62,3.62,0,0,0,.3-.58,1.57,1.57,0,0,0,.08-.2.45.45,0,0,0,0-.39.56.56,0,0,0-.54-.26.54.54,0,0,0-.25,0l-.18.08-.17.08c-.12.05-.28.12-.5.19a3.81,3.81,0,0,1-.74.12,3.7,3.7,0,0,1-.87-.11,2,2,0,0,1-.86-.46c-.12-.08-.27-.22-.23-.27h0l-.05,0a.39.39,0,0,0-.1-.08l-.09-.09-.05,0,0,0,.11.06h0l-.18-.24a2.77,2.77,0,0,1-.52-2,2.12,2.12,0,0,1,.12-.45,1.89,1.89,0,0,0,.09-.21l.06-.09s0-.06,0-.05h0l.13-.22.09-.13a.43.43,0,0,1,0-.07v0l-.08.14,0,0,.11-.13a4.66,4.66,0,0,1,.51-.48,4.34,4.34,0,0,1,2.78-1,4.53,4.53,0,0,1,1.64.33c.14.05.3.13.35.15l.3.16,0,0h0l.12.08a6.89,6.89,0,0,1,.94.66,8.42,8.42,0,0,1,2.69,3.6,6.74,6.74,0,0,1,.43,2.15,5.45,5.45,0,0,1,0,1.07,6.12,6.12,0,0,1-.18,1c0,.18-.1.34-.15.51l-.18.46c0,.09-.18.36-.29.57v0s0,0,0,0l0,0,0,.07-.08.13c-.05.1-.11.19-.16.28a17.3,17.3,0,0,1-5.1,5.18,12.81,12.81,0,0,1-2,1,12.37,12.37,0,0,1-2,.67l-.46.1a22.53,22.53,0,0,1-10.78-3.12C217.43,66.65,216.42,59.32,216.9,55v0A4.45,4.45,0,0,0,220,51.47a4.38,4.38,0,0,0-3.46-5.15,3.52,3.52,0,0,0-.91-.06A4.42,4.42,0,0,0,211.44,50a4.56,4.56,0,0,0,.43,2.91,10.49,10.49,0,0,1-6.64,1.76,28.64,28.64,0,0,1-7.43-1.3C186.23,50.17,185.25,39.41,186.12,32c3.39-3.82,6.84-7.6,10.4-11.31q-3.2-8.57-6.81-17.06l-.06.07,0-.07q-6.33,6.72-12.3,13.64,3,6.9,5.72,13.86h0c-1.53,6.86-5.58,16.15-16,16.4a19,19,0,0,1-2.11-.08c-8.33-.55-11.74-3.19-13.13-5.36h0a4.47,4.47,0,0,0,1.33-2.46,4.4,4.4,0,0,0-3.47-5.16,3.9,3.9,0,0,0-.9-.06,4.43,4.43,0,0,0-4.23,3.69,4.48,4.48,0,0,0,1.79,4.46c-1.09,4.21-4.62,10.62-15.89,12a29.43,29.43,0,0,1-5,.31,19,19,0,0,1-6.47-1.24h0a10.82,10.82,0,0,1-1.67-1.33,13.24,13.24,0,0,1-1.52-1.71,17.21,17.21,0,0,1-2.27-4.42,19.16,19.16,0,0,1-.71-2.55l0-.08v0h0v0l0-.18-.06-.35c0-.18,0-.34,0-.55a6.79,6.79,0,0,1,0-1.19,7.92,7.92,0,0,1,2-4.43A9.71,9.71,0,0,1,119,34c.22-.07.43-.13.65-.18l.33-.07.28,0a3.4,3.4,0,0,1,.39-.06l.23,0h.52a6.19,6.19,0,0,1,2.2.42,5.6,5.6,0,0,1,3,2.62,4,4,0,0,1,.32.85l0,.11v0c0-.21,0-.05,0-.09v.1a2.87,2.87,0,0,1,0,.31.38.38,0,0,1,0,.16l0,.12a2.8,2.8,0,0,1-.28,1.39,3.59,3.59,0,0,1-.85,1.16,5.12,5.12,0,0,1-1.23.78l-.17.06-.08,0,0,0h0l-.4.1a2.06,2.06,0,0,1-.5.07,2.53,2.53,0,0,1-1-.13,3.35,3.35,0,0,1-1.44-.92,3,3,0,0,1-.3-.39l-.09-.14a.52.52,0,0,0-.4-.24h-.09a.57.57,0,0,0-.64.42h0s0,.08,0,.23a3.36,3.36,0,0,0,0,.68,3.42,3.42,0,0,0,.3,1.12,4.23,4.23,0,0,0,1,1.39,6,6,0,0,0,2,1.18,3.88,3.88,0,0,0,.69.18l.37.07.45,0,.23,0h.14l.25,0H125l.84-.07A8.57,8.57,0,0,0,131.75,42a8.37,8.37,0,0,0,1-1.67,7.79,7.79,0,0,0,.5-1.94c0-.19,0-.4,0-.6v-.54c0-.1,0-.21,0-.31v-.1c0-.08,0,.16,0-.19v-.06l0-.23a9,9,0,0,0-.5-1.84,10.78,10.78,0,0,0-6.21-5.78,13.82,13.82,0,0,0-4.83-.91h-.09c-.42,0-.84,0-1.26.05l-.72.08-.47.07-.22,0-.14,0-.28.06a5.59,5.59,0,0,0-.56.12c-.37.09-.74.19-1.1.31a15.2,15.2,0,0,0-7.29,4.89A12.26,12.26,0,0,0,106.68,41a11.25,11.25,0,0,0,.13,1.93c0,.3.12.67.2,1s.15.54.23.81a26,26,0,0,0,1.17,3.05,19.35,19.35,0,0,0,2.71,4.31h0q4.86,11.27,9.1,22.69c.35,0,.69,0,1,0a47,47,0,0,0-16.12,9.89c-13.87,13.24-13.63,31.09-13.29,35.79A72.63,72.63,0,0,0,84,126.09a51.55,51.55,0,0,1-8.26-6.26c1.13-3.27.64-6.53-1.54-8.51a30.25,30.25,0,0,0,1.62-5.43,29.3,29.3,0,0,1,2.93-5.5c2.79-4.55,6-9.71,2.51-12.55a5.3,5.3,0,0,0-4.38-1.15C72.22,87.51,67.52,94,65.53,97a8.68,8.68,0,0,0-7.07-.26,5.49,5.49,0,0,0-3.81.17c-2.77,1.14-4.51,4.25-5.18,5.68-4.55,1.94-5,6.53-4.53,9.24a8.73,8.73,0,0,0-.45,7.06c1.36,3.41,4.83,5.07,5.89,5.52a11.58,11.58,0,0,0,7.35,3.13,8,8,0,0,0,1.94-.23,7.14,7.14,0,0,0,.93-.28h0a6.49,6.49,0,0,0,4.24,1.48,9.55,9.55,0,0,0,4.14-1,59.11,59.11,0,0,0,7.65,6A21.42,21.42,0,0,0,73,140.42a.15.15,0,0,0,0,.07c-.12.42-.21.84-.29,1.26,0,.11,0,.22-.05.33,0,.28-.08.55-.11.82l0,.43c0,.27,0,.55,0,.82v.35c0,.22,0,.44.06.66a33.83,33.83,0,0,0-8.9,4.33c-2.28,1.7-3.53,3.58-3.71,5.59a6.69,6.69,0,0,0,1.44,5.26c2.23,2.53,6.31,2.67,10.26,2.81,3.55.12,7.22.24,8,2.15,1.07,2.48.42,5.72-.21,8.85-.86,4.27-1.84,9.12,1.79,12.44a8.15,8.15,0,0,0,4.73,2c6,10.62,17.48,18.76,34.42,24.31a90.49,90.49,0,0,0-1.32,16.76c-2.65,1.28-9.32,4.57-14.78,7.77l-.1.06c-3.5,2.05-6.49,4.07-7.56,5.48a19.54,19.54,0,0,0-3,5.57c-1.24,3.73-.93,6.91.88,9,2.11,2.41,13.42,3.13,20,3.35,1.11,0,2.91.08,5,.08,4.64,0,10.77-.22,14.31-1.22a7.36,7.36,0,0,0,2-.82,5.27,5.27,0,0,0,2.07-3,13.07,13.07,0,0,0,.49-3.68c0-.47,0-1,0-1.49h0c-.37-6.5-3.7-16.84-8.28-19.93a80.39,80.39,0,0,1,1-14.92q8.43,2,18.25,3.34a221.17,221.17,0,0,0,25.36,2.06,87.15,87.15,0,0,1,.29,9.52c-4.58,3.09-7.91,13.43-8.28,19.93-.23,4.16.62,6.91,2.53,8.16,2.62,1.71,10.59,2,16.3,2,2.12,0,3.92,0,5-.08,6.56-.22,17.86-.94,20-3.35a6.41,6.41,0,0,0,1.08-1.75,8.94,8.94,0,0,0,.44-4.54,15.13,15.13,0,0,0-.64-2.69h0a19.73,19.73,0,0,0-3-5.58c-1.07-1.4-4.06-3.42-7.56-5.47l-.1-.06c-5.46-3.2-12.13-6.49-14.78-7.77,0-3-.07-5.88-.28-8.56A99.83,99.83,0,0,0,200,219.34c9.55-2,17.15-5.32,22.65-10h.17a9.42,9.42,0,0,0,4.86-1.11c4.76-2.81,4.31-7.34,4-10.33a18.83,18.83,0,0,1-.13-2c.11-.39.21-.77.3-1.15a.71.71,0,0,1,.09-.07c.89-.53,3-.7,5-.87,4.61-.39,10.92-.91,12.35-6.4.41-1.56-.08-3.42-1.51-5.69a35.68,35.68,0,0,0-5.32-6.25c2-2.27,3.32-6,2.57-12.28,0-.06,0-.11,0-.16a41.23,41.23,0,0,0-.74-4.14,59.63,59.63,0,0,0,9.3-4.23,8.69,8.69,0,0,0,5.45,2.16,6.17,6.17,0,0,0,2.81-.66h0a7.69,7.69,0,0,0,.84.49,8.33,8.33,0,0,0,3.85.91,13.18,13.18,0,0,0,5.86-1.57c1.14-.18,4.9-1,7-4a8.7,8.7,0,0,0,1.2-7C281.74,142.44,282.36,137.86,278.39,134.92ZM204.72,75.86a4.86,4.86,0,0,1-3.58-5.76A4.65,4.65,0,0,1,206,66.69a4.89,4.89,0,0,1,1,.17,4.8,4.8,0,0,1,3.56,5.83,4.73,4.73,0,0,1-4.9,3.34A5.37,5.37,0,0,1,204.72,75.86ZM185.23,63.45c-2.5,3.12-4.94,6.29-7.33,9.47l-.1,0-1.11-.18c-1.15-3.83-2.34-7.65-3.61-11.47q4-5.37,8.17-10.67Q183.37,57,185.23,63.45ZM151.37,56.9A4.74,4.74,0,0,1,155.84,62a4.84,4.84,0,0,1-5.26,4.16,4.66,4.66,0,1,1,.79-9.27Zm93.54.49h0Z"/><polygon class="cls-2" points="112.72 43.42 112.72 43.42 112.72 43.42 112.72 43.42"/><path class="cls-3" d="M101.64,139.14a3.35,3.35,0,0,1-3.24,2.54,3.73,3.73,0,0,1-.8-.1,63.55,63.55,0,0,1-23.69-11.32,44.22,44.22,0,0,1-7.54-7.2A3.35,3.35,0,0,1,71.68,119a38.42,38.42,0,0,0,6.54,6.12l.34.26a57.37,57.37,0,0,0,20.65,9.72A3.34,3.34,0,0,1,101.64,139.14Z"/><g class="cls-4"><path class="cls-5" d="M78.22,125.11a23.47,23.47,0,0,1-4.31,5.15,44.22,44.22,0,0,1-7.54-7.2A3.35,3.35,0,0,1,71.68,119,38.42,38.42,0,0,0,78.22,125.11Z"/></g><path class="cls-5" d="M98.4,143.42a5,5,0,0,1-1.22-.15C75.78,138,65.42,124.68,65,124.11a5.08,5.08,0,0,1,8.07-6.18c.08.1,8.88,11.08,26.57,15.47a5.09,5.09,0,0,1-1.23,10ZM69,119.43a1.59,1.59,0,0,0-1,.32,1.61,1.61,0,0,0-.3,2.25c.4.52,10,12.87,30.25,17.89a1.74,1.74,0,0,0,.39.05,1.6,1.6,0,0,0,.39-3.16c-19-4.72-28.39-16.61-28.49-16.73A1.59,1.59,0,0,0,69,119.43Z"/><ellipse class="cls-6" cx="67.19" cy="119.85" rx="8.72" ry="6.11" transform="translate(-67.73 93.87) rotate(-49.83)"/><path class="cls-5" d="M64.73,129.27a6.42,6.42,0,0,1-4.24-1.49c-3.33-2.81-3-8.49.76-12.94a12.48,12.48,0,0,1,6.19-4.1,7,7,0,0,1,6.44,1.17c3.33,2.81,3,8.5-.76,13h0A11.45,11.45,0,0,1,64.73,129.27Zm4.94-15.51a5.66,5.66,0,0,0-1.38.19,9.22,9.22,0,0,0-4.5,3c-2.47,2.92-3,6.71-1.16,8.27s5.48.39,7.95-2.53h0c2.48-2.93,3-6.72,1.16-8.27A3.12,3.12,0,0,0,69.67,113.76Zm2.18,10h0Z"/><path class="cls-6" d="M74.05,106.26s-1.7,9.93-7.62,12.88c0,0-5.37,13.17-15.31,4.57,0,0-7.44-2.63-5.22-9.34a9.71,9.71,0,0,1,.66-1.58s-1.62-6.27,4-8.15c0,0,3-7.51,7.79-5.38h0a7,7,0,0,1,7.52.8S74.58,85.36,80,89.87l.12.1C83.44,93,75.38,101.57,74.05,106.26Z"/><g class="cls-4"><path class="cls-5" d="M74.05,106.26s-1.7,9.93-7.62,12.88c0,0-5.37,13.17-15.31,4.57,0,0-7.44-2.63-5.22-9.34,2.9,3.13,7.13,6.31,11.42,4.6,7.62-3,7.42-7.63,7.42-7.63s6.35.26,7.47-10.64c0,0,5.8-5.46,8-10.73C83.44,93,75.38,101.57,74.05,106.26Z"/></g><path class="cls-5" d="M57.6,128.29c-2.4,0-4.86-1-7.34-3.13-1.07-.45-4.54-2.12-5.89-5.52a8.76,8.76,0,0,1,.44-7.06c-.47-2.71,0-7.31,4.53-9.24.68-1.44,2.41-4.55,5.18-5.69a5.61,5.61,0,0,1,3.81-.17,8.69,8.69,0,0,1,7.07.27c2-3,6.7-9.5,11.32-10.31a5.25,5.25,0,0,1,4.38,1.15c3.45,2.84.28,8-2.51,12.54a30.25,30.25,0,0,0-2.93,5.51c-.2,1.13-2,10.28-7.94,13.7-.81,1.69-3.52,6.6-8.18,7.72A8.5,8.5,0,0,1,57.6,128.29Zm-.94-27.75a2.22,2.22,0,0,0-.87.18c-1.83.75-3.29,3.59-3.66,4.53a1.69,1.69,0,0,1-1,1c-4,1.33-3.07,5.67-3,6.16a1.64,1.64,0,0,1-.13,1.17,5.88,5.88,0,0,0-.59,4.85c1,2.55,4.21,3.74,4.24,3.75a1.76,1.76,0,0,1,.53.31c2.37,2,4.57,2.84,6.55,2.37,3.87-.92,6.12-6.26,6.14-6.31a1.66,1.66,0,0,1,.79-.86c4.23-2.11,6.29-9.15,6.72-11.68a1.16,1.16,0,0,1,0-.18,29.86,29.86,0,0,1,3.32-6.4c1.66-2.71,4.44-7.25,3.22-8.25a1.93,1.93,0,0,0-1.7-.44c-3.19.56-7.81,6.56-10,10.21a1.66,1.66,0,0,1-1.16.79,1.63,1.63,0,0,1-1.34-.37,5.33,5.33,0,0,0-5.68-.6,1.72,1.72,0,0,1-1.47,0A2.63,2.63,0,0,0,56.66,100.54Z"/><path class="cls-5" d="M52.4,125.23a9.62,9.62,0,0,1-1.51-.11l-.24-.07c-.19-.06-4.53-1.64-6.06-5.5a8.49,8.49,0,0,1,.47-6.94c-.49-2.64-.07-7.21,4.46-9.09.63-1.36,2.34-4.52,5.09-5.65a5.44,5.44,0,0,1,4.33.09L59,98h0c.94.49,9.09,4.9,6.71,9.67h0a4.73,4.73,0,0,1-2.85,2.47,6,6,0,0,1-1.44.25,4.6,4.6,0,0,1,.6,1.38,3.26,3.26,0,0,1-.48,2.66,5.35,5.35,0,0,1-4.08,2.41c1.2,1.33,2,2.84,1.53,4.31C58,124.4,54.8,125.23,52.4,125.23Zm-.92-2.9c.7.08,4.11.34,4.82-2,.32-1.07-4-4.46-5.53-5a1.42,1.42,0,0,1-.91-1.76,1.45,1.45,0,0,1,1.75-1c.24.07.52.19.92.35,2.56,1.06,5.36,1.87,6.68-.09a.41.41,0,0,0,.08-.4c-.1-.39-.73-1.83-5-4.2l-.22-.12a1.42,1.42,0,0,1,1.35-2.5l.25.13c3.75,2,5.6,1.93,6.37,1.69a1.87,1.87,0,0,0,1.16-1c.85-1.69-3.1-4.64-5.44-5.86a2.49,2.49,0,0,0-2,0c-1.92.79-3.39,3.63-3.79,4.66A1.42,1.42,0,0,1,51,106c-4.22,1.41-3.22,5.94-3.1,6.45a1.39,1.39,0,0,1-.11,1,6,6,0,0,0-.59,5C48.16,120.85,50.87,122.08,51.48,122.33Zm13-15.28h0Z"/><path class="cls-3" d="M221.63,161.55a3.59,3.59,0,0,0,.81.09c21.45-.19,34.14-10.32,34.67-10.75a3.34,3.34,0,0,0-4.21-5.19h0c-.12.09-11.53,9.09-30.52,9.25a3.35,3.35,0,0,0-.75,6.6Z"/><path class="cls-5" d="M222.41,163.38a5.3,5.3,0,0,1-1.19-.14h0a5.09,5.09,0,0,1,1.15-10c18.22-.15,29.33-8.79,29.44-8.87a5.08,5.08,0,0,1,6.4,7.9c-.55.44-13.71,10.95-35.76,11.14Zm-.38-3.53a1.31,1.31,0,0,0,.39.05c20.84-.18,33.08-10,33.59-10.36a1.6,1.6,0,0,0-2-2.49c-.12.1-12,9.47-31.59,9.64a1.6,1.6,0,0,0-1.59,1.62A1.58,1.58,0,0,0,222,159.85Z"/><ellipse class="cls-6" cx="257.07" cy="147.58" rx="6.11" ry="8.72" transform="translate(-38.9 131.35) rotate(-26.72)"/><path class="cls-5" d="M258.93,157.51c-3.28,0-6.78-2.43-8.8-6.44h0a12.56,12.56,0,0,1-1.34-7.3,6.58,6.58,0,0,1,10.15-5.11,12.48,12.48,0,0,1,5.07,5.42c2.62,5.2,1.62,10.81-2.27,12.77A6.17,6.17,0,0,1,258.93,157.51ZM255.18,141a2.79,2.79,0,0,0-1.29.3,3.86,3.86,0,0,0-1.81,3,9.3,9.3,0,0,0,1,5.33h0c1.73,3.42,5,5.39,7.16,4.31s2.51-4.89.79-8.31a9.31,9.31,0,0,0-3.67-4A5,5,0,0,0,255.18,141Z"/><path class="cls-6" d="M253.56,132.76s-.66,10.06,4.4,14.31c0,0,2.16,14.05,13.83,8,0,0,9.07-1,7-9.56,0,0,3-5.72-2-8.86,0,0-1.12-8-6.32-7h0a7,7,0,0,0-7.5-1s-5-16.33-11.38-13.22C247.36,117.47,253.34,127.84,253.56,132.76Z"/><g class="cls-4"><path class="cls-5" d="M252.71,132.38S252,143,257.3,147.51c0,0,2.22,14.84,14.57,8.51,0,0,8.29-.84,7.69-8.28-3.76,2.49-8.89,4.69-12.87,1.87-7.06-5-5.7-9.68-5.7-9.68s-6.59-1.33-5-12.8c0,0-4.58-7-5.47-13C246.38,116.45,252.51,127.24,252.71,132.38Z"/></g><path class="cls-5" d="M266.44,158.25a8.33,8.33,0,0,1-3.85-.91c-4.27-2.17-5.76-7.58-6.15-9.41-4.94-4.7-4.6-14-4.54-15.18a29.65,29.65,0,0,0-1.57-6c-1.66-5.07-3.53-10.82.48-12.78a5.25,5.25,0,0,1,4.53-.1c4.3,1.87,7.38,9.23,8.61,12.66a8.65,8.65,0,0,1,6.93,1.38,5.58,5.58,0,0,1,3.67,1.06c2.43,1.75,3.39,5.18,3.71,6.73,4,2.94,3.35,7.52,2.26,10a8.73,8.73,0,0,1-1.21,7c-2.11,3-5.87,3.81-7,4A13.28,13.28,0,0,1,266.44,158.25Zm-11.23-25.38c0,.16-.52,9.29,3.82,12.93a1.64,1.64,0,0,1,.57,1c0,.05.95,5.77,4.5,7.57,1.82.91,4.15.65,6.93-.79a1.5,1.5,0,0,1,.59-.18s3.41-.41,5-2.66a5.81,5.81,0,0,0,.56-4.86,1.67,1.67,0,0,1,.15-1.16c.23-.45,2.16-4.45-1.43-6.68a1.66,1.66,0,0,1-.77-1.18c-.16-1.07-.91-4.11-2.51-5.26a2.28,2.28,0,0,0-1.85-.38,1.78,1.78,0,0,1-.69,0,1.64,1.64,0,0,1-.74-.38,5.34,5.34,0,0,0-5.65-.72,1.67,1.67,0,0,1-2.34-1c-1.24-4-4.34-11-7.31-12.25a2,2,0,0,0-1.75,0c-1.42.69.23,5.75,1.21,8.77a29.76,29.76,0,0,1,1.74,7A1.09,1.09,0,0,1,255.21,132.87Z"/><path class="cls-5" d="M271.79,156.5h-.1c-1.94-.14-5.66-1.38-5.89-5a4.63,4.63,0,0,1,1.58-3.85A4.42,4.42,0,0,1,264,144a4.7,4.7,0,0,1,1.67-4.15,6.74,6.74,0,0,1-3.21-1,3.2,3.2,0,0,1-1.43-2.24h0c-.88-6,8.58-8.35,9.07-8.46l.09,0a5.39,5.39,0,0,1,4.23.92c2.41,1.74,3.34,5.2,3.64,6.68,4,2.88,3.31,7.42,2.22,9.88a8.51,8.51,0,0,1-1.15,6.85c-2.4,3.4-7,3.93-7.18,4ZM274,145.13a1.42,1.42,0,0,1,.12,2.84c-.05,0-5.67.61-5.5,3.31.12,1.87,2.53,2.28,3.14,2.36.64-.1,3.57-.66,5-2.75a6.06,6.06,0,0,0,.59-5,1.39,1.39,0,0,1,.13-1c.24-.47,2.26-4.64-1.52-7a1.41,1.41,0,0,1-.66-1c-.15-1.1-.93-4.22-2.6-5.42a2.54,2.54,0,0,0-2-.43c-1.94.47-7.3,2.41-6.88,5.28,0,.09,0,.18.21.3,1.27.87,5.4.45,7.78-.1a1.42,1.42,0,0,1,.73,2.74c-1.81.55-6,2.58-5.76,4.38.14.94,1.41,2,6.58,1.57l.59,0Z"/><path class="cls-3" d="M128.61,220.65a96.25,96.25,0,0,0,.25,20.66,3.75,3.75,0,0,1-3.31,4.15,3.11,3.11,0,0,1-.43,0,3.76,3.76,0,0,1-3.73-3.34,102.7,102.7,0,0,1-.1-23.91c2.41-19.88,10.82-28.31,11.29-28.77a3.76,3.76,0,0,1,5.26,5.38C137.66,195,130.47,202.61,128.61,220.65Z"/><g class="cls-4"><path class="cls-5" d="M137.9,189.55a3.76,3.76,0,0,1-.06,5.3c-.18.19-7.37,7.76-9.23,25.8-2.65-.79-5.09-1.61-7.32-2.41,2.41-19.88,10.82-28.31,11.29-28.77A3.76,3.76,0,0,1,137.9,189.55Z"/></g><path class="cls-5" d="M125.12,247.23a5.49,5.49,0,0,1-5.46-4.89c-4.28-38.1,11.05-53.48,11.71-54.12a5.5,5.5,0,0,1,7.69,7.86c-.09.1-12.07,13-8.47,45a5.5,5.5,0,0,1-4.85,6.08C125.54,247.22,125.33,247.23,125.12,247.23Zm10.08-57.08a2,2,0,0,0-1.41.57c-.6.59-14.76,14.81-10.67,51.23a2,2,0,0,0,3.59,1,2,2,0,0,0,.43-1.49c-3.8-33.82,8.91-47.31,9.46-47.87a2,2,0,0,0,.05-2.87A2,2,0,0,0,135.2,190.15Z"/><path class="cls-5" d="M134.75,258.2c-4.65,3.05-36.53,1.8-39-1.07-1.51-1.73-1.46-4.52-.54-7.28a18.33,18.33,0,0,1,2.69-5.08c2.87-3.76,22.79-13.25,22.79-13.25,4.33,8.42,7.58,1.08,7.58,1.08,4,1.62,7.86,11.87,8.26,19C136.67,254.74,136.18,257.27,134.75,258.2Z"/><g class="cls-7"><path class="cls-6" d="M135.79,246.68c-1.58-4.77-4-9-6.45-10,0,0-4.82,4.77-9.51-.61,0,0-18,9-20.85,12.79A17.88,17.88,0,0,0,96.29,254a12.28,12.28,0,0,0-.63,3.11c-1.47-1.73-1.39-4.49-.49-7.21a18.07,18.07,0,0,1,2.69-5.08c2.86-3.76,22.78-13.25,22.78-13.25,4.34,8.42,7.58,1.08,7.58,1.08C131.4,233.87,134.43,240.45,135.79,246.68Z"/></g><path class="cls-6" d="M108,247.49a1.76,1.76,0,0,1-1.69-1.33,12.18,12.18,0,0,0-2.65-5.29,1.74,1.74,0,1,1,2.61-2.31,15.79,15.79,0,0,1,3.42,6.77,1.74,1.74,0,0,1-1.27,2.1A1.52,1.52,0,0,1,108,247.49Z"/><path class="cls-6" d="M113.85,244.81a1.73,1.73,0,0,1-1.71-1.4,13.28,13.28,0,0,0-2.63-5.86,1.74,1.74,0,1,1,2.7-2.19,16.78,16.78,0,0,1,3.35,7.38,1.74,1.74,0,0,1-1.38,2A1.84,1.84,0,0,1,113.85,244.81Z"/><path class="cls-5" d="M119.41,261.71c-2.12,0-3.93,0-5-.09-6.55-.21-17.86-.93-20-3.34-1.8-2.07-2.12-5.26-.88-9a19.73,19.73,0,0,1,3-5.58c3-4,21.34-12.78,23.42-13.77a1.73,1.73,0,0,1,2.29.77c1.26,2.45,2.26,3.1,2.66,3.1h0c.56,0,1.42-1.13,1.78-1.93a1.75,1.75,0,0,1,2.23-.91c5.13,2.05,9,13.53,9.36,20.53.23,4.16-.62,6.9-2.52,8.15h0C133.08,261.38,125.12,261.71,119.41,261.71ZM97,255.94c1,.72,7.41,1.91,18,2.22,10.44.31,17.35-.48,18.78-1.41h0c.44-.29,1.14-1.68.95-5.05-.34-6.21-3.24-14-6-16.65A5.16,5.16,0,0,1,125,237.3c-1.85,0-3.49-1.09-5-3.51-7.63,3.71-18.91,9.7-20.69,12a16.37,16.37,0,0,0-2.43,4.57C96,252.83,96.07,254.85,97,255.94Z"/><path class="cls-6" d="M134.75,258.2c-4.65,3.05-36.53,1.8-39-1.07-1.51-1.73-1.46-4.52-.54-7.28,2.8,1.76,8.57,3.43,20.35,3.43,10.1,0,16.7-.77,21-1.68C136.67,254.74,136.18,257.27,134.75,258.2Z"/><path class="cls-5" d="M119.41,261.71c-2.12,0-3.93,0-5-.09-6.55-.21-17.86-.93-20-3.34-1.8-2.07-2.12-5.26-.88-9a1.74,1.74,0,0,1,2.58-.92c2.29,1.44,7.52,3.16,19.42,3.16,8.58,0,15.51-.55,20.61-1.64a1.72,1.72,0,0,1,1.42.32,1.76,1.76,0,0,1,.68,1.29c.23,4.16-.62,6.9-2.52,8.15h0C133.08,261.38,125.12,261.71,119.41,261.71ZM97,255.94c1,.72,7.41,1.91,18,2.22,10.44.31,17.35-.48,18.78-1.41h0c.34-.23.84-1.1,1-3A117.38,117.38,0,0,1,115.52,255c-8.6,0-15-.88-19.18-2.63A4.55,4.55,0,0,0,97,255.94Z"/><path class="cls-3" d="M183.38,242.15a3.75,3.75,0,0,1-3.73,3.34l-.42,0a3.75,3.75,0,0,1-3.32-4.15,103.43,103.43,0,0,0,.64-15c-.75-22.15-9.41-31.27-9.62-31.48a3.76,3.76,0,0,1,5.26-5.38c.53.51,10.93,11,11.87,36.16A109.47,109.47,0,0,1,183.38,242.15Z"/><g class="cls-4"><path class="cls-5" d="M184.06,225.63c-2.54.31-5,.55-7.51.7-.75-22.15-9.41-31.27-9.62-31.48a3.76,3.76,0,0,1,5.26-5.38C172.72,190,183.12,200.43,184.06,225.63Z"/></g><path class="cls-5" d="M179.65,247.23c-.21,0-.42,0-.62,0a5.52,5.52,0,0,1-4.85-6.09c3.6-32.05-8.37-44.93-8.5-45.05a5.51,5.51,0,0,1,7.73-7.84c.65.64,16,16,11.7,54.12A5.49,5.49,0,0,1,179.65,247.23Zm-10.07-57.08a2,2,0,0,0-1.45.61,2,2,0,0,0,0,2.85c.56.58,13.28,14.07,9.48,47.89a2,2,0,0,0,.43,1.49,2,2,0,0,0,1.35.75h.23a2,2,0,0,0,2-1.79c4.09-36.43-10.07-50.65-10.68-51.24A2,2,0,0,0,169.58,190.15Z"/><path class="cls-5" d="M170,258.2c4.66,3.05,36.54,1.8,39-1.07,1.52-1.73,1.46-4.52.54-7.28a17.82,17.82,0,0,0-2.69-5.08c-2.86-3.76-22.78-13.25-22.78-13.25-4.33,8.42-7.58,1.08-7.58,1.08-4,1.62-7.87,11.87-8.26,19C168.11,254.74,168.6,257.27,170,258.2Z"/><g class="cls-7"><path class="cls-6" d="M169,246.68c1.57-4.77,4-9,6.44-10,0,0,4.83,4.77,9.51-.61,0,0,18,9,20.85,12.79a17.91,17.91,0,0,1,2.7,5.07,12.28,12.28,0,0,1,.63,3.11c1.46-1.73,1.39-4.49.48-7.21a17.82,17.82,0,0,0-2.69-5.08c-2.86-3.76-22.78-13.25-22.78-13.25-4.33,8.42-7.58,1.08-7.58,1.08C173.38,233.87,170.34,240.45,169,246.68Z"/></g><path class="cls-6" d="M196.78,247.49a1.52,1.52,0,0,1-.42-.06,1.74,1.74,0,0,1-1.28-2.1,15.69,15.69,0,0,1,3.43-6.77,1.74,1.74,0,1,1,2.6,2.31,12.4,12.4,0,0,0-2.65,5.29A1.74,1.74,0,0,1,196.78,247.49Z"/><path class="cls-6" d="M190.93,244.81l-.34,0a1.74,1.74,0,0,1-1.37-2,16.76,16.76,0,0,1,3.34-7.38,1.74,1.74,0,0,1,2.71,2.19,13.17,13.17,0,0,0-2.63,5.86A1.74,1.74,0,0,1,190.93,244.81Z"/><path class="cls-5" d="M185.37,261.71c-5.71,0-13.68-.33-16.3-2-1.91-1.25-2.76-4-2.52-8.15.39-7,4.23-18.48,9.35-20.53a1.74,1.74,0,0,1,2.24.91c.36.8,1.21,1.92,1.78,1.93.4,0,1.39-.63,2.66-3.1a1.74,1.74,0,0,1,2.3-.77c2.08,1,20.39,9.79,23.42,13.77a20,20,0,0,1,2.95,5.58c1.24,3.72.93,6.91-.88,9-2.11,2.41-13.41,3.13-20,3.34C189.3,261.66,187.49,261.71,185.37,261.71ZM176,235.05c-2.74,2.68-5.64,10.44-6,16.65-.19,3.37.51,4.76,1,5.05h0c1.43.93,8.34,1.72,18.78,1.41,10.62-.31,17-1.5,18-2.22.91-1.09,1-3.11.16-5.54a16.08,16.08,0,0,0-2.42-4.57c-1.78-2.34-13.07-8.33-20.69-12-1.53,2.42-3.18,3.56-5,3.51A5.12,5.12,0,0,1,176,235.05Zm31.81,20.87Z"/><path class="cls-6" d="M170,258.2c4.66,3.05,36.54,1.8,39-1.07,1.52-1.73,1.46-4.52.54-7.28-2.8,1.76-8.56,3.43-20.35,3.43-10.1,0-16.69-.77-21-1.68C168.11,254.74,168.6,257.27,170,258.2Z"/><path class="cls-5" d="M185.37,261.71c-5.71,0-13.68-.33-16.3-2-1.91-1.25-2.76-4-2.52-8.15a1.74,1.74,0,0,1,2.1-1.61c5.1,1.09,12,1.64,20.6,1.64,11.91,0,17.13-1.72,19.43-3.16a1.73,1.73,0,0,1,2.57.92c1.24,3.72.93,6.91-.88,9-2.11,2.41-13.41,3.13-20,3.34C189.3,261.66,187.49,261.71,185.37,261.71Zm-15.35-8c.12,1.94.61,2.81,1,3h0c1.43.93,8.34,1.72,18.78,1.41,10.62-.31,17-1.5,18-2.22a4.51,4.51,0,0,0,.65-3.55c-4.15,1.75-10.58,2.63-19.19,2.63A117.24,117.24,0,0,1,170,253.71Zm37.8,2.21Z"/><path class="cls-3" d="M86.19,157.28s-24.27,49.17,63.21,61,81.24-30.5,81.24-30.5Z"/><path class="cls-5" d="M177.52,222.09a212.72,212.72,0,0,1-28.35-2.1c-33.64-4.54-55.09-15.08-63.73-31.33-8.56-16.07-1.13-31.5-.81-32.15a1.72,1.72,0,0,1,1.92-.93L231,186.07a1.73,1.73,0,0,1,1.36,1.45c.07.45,1.54,11.22-7.86,20.73-5.6,5.66-13.87,9.65-24.6,11.84A113.11,113.11,0,0,1,177.52,222.09ZM87.23,159.28c-1.46,3.79-5.12,15.76,1.3,27.79,3.59,6.71,9.77,12.49,18.38,17.17,10.61,5.77,25,9.91,42.73,12.3,45,6.08,64.14-2.45,72.32-10.67a22.94,22.94,0,0,0,7-16.66Z"/><g class="cls-4"><path class="cls-5" d="M230.64,187.71,86.19,157.21S78.35,173.1,87.66,189c-.72-.63-1.41-1.27-2.07-1.91,6.27,12.76,22.9,26,62.93,31.39,31.1,4.2,50.36,1.56,62.26-3.59l.14.05C233.3,205.68,230.64,187.71,230.64,187.71Zm-119.07,7c6.51,2.88,6.58,7.62,9.05,10.83a101.82,101.82,0,0,1-24.18-10.23C101.76,194.13,107.36,192.89,111.57,194.75Zm17.85,13.14c6.05-2,13.7-8.15,19.18-7.12,4.67.89,9.19,7.75,14.52,12.25q-6.57-.57-13.89-1.55C142,210.49,135.4,209.28,129.42,207.89Zm49.62,6c2.39-3.24,2.16-7.85,6.42-8,3-.12,10.35,3.22,18.17,6.35A137.51,137.51,0,0,1,179,213.84Z"/></g><path class="cls-8" d="M247.54,187.66c-1.72,6.57-13,4.11-16.57,6.2s2.33,9.69-4.27,13.59c-8,4.71-34.66-11.06-41.12-10.8s-2.6,10.7-13.15,11.12c-9.85.4-16.59-14.82-23.72-16.17s-18,9.52-24.12,7.48c-7.06-2.33-4.11-9.62-12.91-13.51s-23.62,5.79-29.41.48C77,181.21,84,172,81.11,165.35s-20.57,1-19.62-9.36c.17-1.77,1.54-3.42,3.85-4.94,16.28-10.69,79.33-15,97.25-11.52,40.07,7.85,73.4,30.24,82.54,42.22C247,184.25,247.9,186.29,247.54,187.66Z"/><g class="cls-4"><path class="cls-9" d="M247.54,187.66c-1.72,6.57-13,4.11-16.57,6.2s2.33,9.69-4.27,13.59c-8,4.71-34.66-11.06-41.12-10.8s-2.6,10.7-13.15,11.12c-9.85.4-16.59-14.82-23.72-16.17s-18,9.52-24.12,7.48c-7.06-2.33-4.11-9.62-12.91-13.51s-23.62,5.79-29.41.48C77,181.21,84,172,81.11,165.35s-20.57,1-19.62-9.36c.17-1.77,1.54-3.42,3.85-4.94.39,3,3.89,6.16,16.9,6.16,0,0,5.61,2.51,4,15.52s23.77,3.48,30.11,5,5.35,10.33,13.44,11.06,15.53-5.93,20.58-5.49,12.61,13.31,21,13,5.18-7.51,12.75-7.55,27.52,11.47,34.93,7.55,10.39-12.36,16.32-13c3.77-.43,7.42.28,9.75-1.58C247,184.25,247.9,186.29,247.54,187.66Z"/></g><path class="cls-5" d="M69.62,155.44c3.18-.79,6.39-1.37,9.62-1.91s6.48-.93,9.74-1.26a133.21,133.21,0,0,1,19.68-.58,93.2,93.2,0,0,1,9.85.93c1.64.23,3.27.56,4.89.88s3.24.73,4.84,1.21A46.61,46.61,0,0,1,146,163.9a1.3,1.3,0,0,1-1.66,2l0,0a49.5,49.5,0,0,0-16.86-8.47c-1.52-.49-3.08-.86-4.63-1.26s-3.13-.68-4.72-.93c-.79-.14-1.58-.27-2.38-.38s-1.59-.24-2.39-.34l-2.4-.28c-.8-.09-1.61-.14-2.41-.21a149.74,149.74,0,0,0-19.42-.22c-3.24.15-6.48.42-9.72.74s-6.46.74-9.67,1.27h0a.2.2,0,0,1-.21-.16A.18.18,0,0,1,69.62,155.44Z"/><path class="cls-5" d="M86.14,180.4c2-1.61,4.1-3.08,6.24-4.5s4.34-2.74,6.58-4A90.66,90.66,0,0,1,113,165.45a60.72,60.72,0,0,1,15.2-3.47c.65-.08,1.31-.09,2-.13l1,0h1c.66,0,1.31,0,2,0l2,.15c.66.07,1.31.16,2,.26a19.05,19.05,0,0,1,2,.36,36.87,36.87,0,0,1,3.84,1,1.32,1.32,0,0,1,.87,1.63,1.31,1.31,0,0,1-1.54.89l-.12,0c-1.2-.28-2.37-.63-3.59-.81a15.68,15.68,0,0,0-1.82-.29c-.61-.06-1.21-.16-1.83-.21a49.39,49.39,0,0,0-7.4,0,66.93,66.93,0,0,0-14.68,2.88,104.17,104.17,0,0,0-14.09,5.57c-2.29,1.1-4.53,2.29-6.75,3.52s-4.42,2.54-6.54,3.93h0a.19.19,0,0,1-.26-.06A.2.2,0,0,1,86.14,180.4Z"/><path class="cls-5" d="M166.23,168a156.67,156.67,0,0,1,14.68,5.66c4.79,2.12,9.5,4.44,14.09,7a133.17,133.17,0,0,1,13.35,8.3,72.73,72.73,0,0,1,11.87,10.27.2.2,0,0,1,0,.27.2.2,0,0,1-.25,0h0a85.19,85.19,0,0,0-12.45-9.26c-4.39-2.73-8.95-5.19-13.59-7.49s-9.37-4.4-14.13-6.44q-3.57-1.52-7.17-3L169,171.81l-3.61-1.39h0a1.31,1.31,0,0,1,.87-2.46Z"/><path class="cls-5" d="M181.5,166c5,.84,10,1.88,14.95,3.05s9.86,2.5,14.74,4,9.71,3.09,14.44,5a75.5,75.5,0,0,1,7,3.22c.56.31,1.12.61,1.67.95s1.1.66,1.62,1l.79.55.75.6a17.74,17.74,0,0,1,1.42,1.32.19.19,0,0,1,0,.26.18.18,0,0,1-.25,0l0,0a25.83,25.83,0,0,0-6.43-3.8c-2.31-1-4.66-1.9-7-2.71-4.79-1.58-9.65-2.93-14.54-4.18s-9.82-2.36-14.75-3.47L181,168.57h0a1.31,1.31,0,0,1,.5-2.57Z"/><path class="cls-5" d="M156.92,162.26c1.72,2.87,3.26,5.81,4.72,8.8s2.81,6,4.06,9.11,2.44,6.2,3.43,9.38a70,70,0,0,1,2.41,9.69.16.16,0,0,1-.14.19.18.18,0,0,1-.19-.12h0c-1-3.16-2.14-6.24-3.39-9.28s-2.66-6-4.07-9-2.93-5.9-4.41-8.84l-4.49-8.78h0a1.18,1.18,0,0,1,2.07-1.15Z"/><path class="cls-5" d="M160.66,165.92c-3,1.93-6,3.9-9,5.88s-6,4-8.85,6.12-5.74,4.3-8.45,6.65q-2,1.77-3.89,3.69a31.57,31.57,0,0,0-3.44,4.12.18.18,0,0,1-.24,0,.17.17,0,0,1,0-.22,30,30,0,0,1,3-4.55,52.35,52.35,0,0,1,3.64-4.09,91.92,91.92,0,0,1,8.09-7.33c2.83-2.3,5.73-4.5,8.72-6.55s6-4,9.24-5.8a1.18,1.18,0,0,1,1.22,2Z"/><path class="cls-5" d="M222.72,210.05c-6.41,0-15.63-3.78-24-7.22-5.42-2.22-11-4.52-13.07-4.44-1.58.06-2.07.94-3.09,3.43-1.27,3.13-3,7.41-10.06,7.69-6.41.25-11.38-5-15.78-9.61-3-3.14-5.81-6.12-8.33-6.59-2.94-.56-7.12,1.64-11.17,3.77-4.82,2.53-9.36,4.91-13.18,3.65-4.1-1.35-5.47-4.23-6.68-6.77s-2.41-5-6.38-6.79c-3.74-1.66-9.09-.43-14.26.76-6.15,1.42-12,2.75-15.62-.59s-2.66-8.17-1.8-12.44c.63-3.13,1.29-6.38.21-8.85-.82-1.91-4.5-2-8.05-2.16-3.95-.13-8-.27-10.26-2.81a6.68,6.68,0,0,1-1.44-5.25c.19-2,1.43-3.89,3.71-5.59,15.37-11.51,80.9-16.05,99.46-12.42C206,146.26,240.52,171,247.71,182.4c1.43,2.27,1.92,4.14,1.51,5.7-1.43,5.49-7.74,6-12.35,6.39-2,.17-4.13.35-5,.87-.51.31-.44,1.49-.26,3.26.3,3,.75,7.52-4,10.33A9.56,9.56,0,0,1,222.72,210.05Zm-37-15.14c2.71,0,7.24,1.8,14.31,4.7,9.09,3.73,21.54,8.84,25.77,6.34,2.66-1.57,2.65-3.68,2.32-7-.23-2.29-.52-5.14,2-6.6,1.58-.92,3.86-1.11,6.5-1.33,5-.42,8.52-.93,9.28-3.81,0-.14.16-1-1.1-3-2.87-4.57-12-13.22-28.2-22.54a180.23,180.23,0,0,0-54.3-20.47c-17.65-3.46-82.25,1-96.7,11.78-1,.75-2.22,1.9-2.33,3.13a3.39,3.39,0,0,0,.58,2.63c1.24,1.41,4.56,1.52,7.77,1.63,4.42.16,9.42.33,11.13,4.25,1.5,3.48.71,7.44,0,10.93-.9,4.47-1.3,7.32.74,9.18,2.3,2.11,7.25,1,12.49-.23,5.73-1.32,11.65-2.68,16.45-.56,5.15,2.28,6.79,5.72,8.11,8.48,1.13,2.37,2,4.08,4.64,5,2.41.79,6.5-1.36,10.46-3.43,4.58-2.41,9.31-4.89,13.44-4.11,3.62.68,6.82,4.05,10.21,7.61,4.07,4.29,8.3,8.73,13.11,8.53s5.81-2.66,7-5.52c1-2.42,2.21-5.44,6.17-5.6Z"/><path class="cls-10" d="M230.24,182.29c-3.43,10.5-22.47,15.33-42.51,10.8-13.23-3-23.59-9.32-28.12-16.29-2.35-3.59-3.14-7.36-2-10.93,3.44-10.5,22.47-15.34,42.52-10.8,15.81,3.58,27.52,11.91,30.09,20.42A11.12,11.12,0,0,1,230.24,182.29Z"/><g class="cls-4"><path class="cls-11" d="M230.25,175.49c-8.84,6.19-26.56,9.31-45.79,7.26a91.82,91.82,0,0,1-24.85-5.95c-2.35-3.59-3.14-7.36-2-10.93,3.44-10.5,22.47-15.34,42.52-10.8C216,158.65,227.68,167,230.25,175.49Z"/></g><path class="cls-5" d="M202.77,196.56a70.57,70.57,0,0,1-15.43-1.77c-13.85-3.14-25.29-10.08-29.85-18.11a13.89,13.89,0,0,1-1.5-11.35h0c3.76-11.51,23.33-16.76,44.55-12,13.86,3.14,25.3,10.08,29.85,18.11a13.86,13.86,0,0,1,1.51,11.35C229.08,191.45,217.38,196.56,202.77,196.56Zm-17.34-41.42c-13.08,0-23.84,4.24-26.13,11.27h0a10.37,10.37,0,0,0,1.22,8.55c4.09,7.21,14.66,13.5,27.59,16.43,18.84,4.26,37.38-.15,40.48-9.64a10.37,10.37,0,0,0-1.23-8.56c-4.08-7.2-14.66-13.5-27.59-16.42A65.18,65.18,0,0,0,185.43,155.14Zm-27.79,10.73h0Z"/><path class="cls-10" d="M157.26,167.29c-1.93,10.17,11.23,21.53,30.43,25.87,20.05,4.54,39.08-.29,42.52-10.79a11.15,11.15,0,0,0,.07-6.57,9.11,9.11,0,0,1-.35,1.34c-3.43,10.51-22.46,15.34-42.51,10.8C171.47,184.33,159.68,175.88,157.26,167.29Z"/><path class="cls-5" d="M202.6,196.29a69.43,69.43,0,0,1-15.22-1.74C167.29,190,153.75,178.17,155.86,167a1.43,1.43,0,0,1,2.77-.12c2.35,8.35,14.05,16.25,29.1,19.66,9.48,2.14,19,2.23,26.83.24,7.54-1.91,12.52-5.5,14-10.1a8.62,8.62,0,0,0,.3-1.16,1.42,1.42,0,0,1,2.77-.13,12.6,12.6,0,0,1-.09,7.4c-1.82,5.56-7.51,9.81-16,12A52.76,52.76,0,0,1,202.6,196.29ZM160.05,175c3.83,7.09,14.42,13.73,28,16.79,9.48,2.15,19,2.24,26.82.25,7.51-1.9,12.48-5.47,14-10.05-2.82,3.41-7.47,6-13.58,7.59-8.24,2.09-18.24,2-28.15-.23C175.38,186.68,165.53,181.32,160.05,175Z"/><path class="cls-12" d="M189.86,167.33c2.71.17,12.67,9,11,13.13-1.51,3.74-16.35,4.51-19.24-1.86C179.43,173.73,187.39,167.18,189.86,167.33Z"/><path class="cls-12" d="M200.75,165.07c-1.55,1,2.81,11.79,8.85,14.68,5.54,2.65,16.11-1.59,10.21-7.91C215.31,167,202.17,164.14,200.75,165.07Z"/><ellipse class="cls-10" cx="117.23" cy="160.58" rx="19.88" ry="37.28" transform="translate(-51.84 265.19) rotate(-85.62)"/><g class="cls-4"><path class="cls-11" d="M81.82,152.64c6.87,8.58,22.48,16.49,40.53,19.67a78.76,78.76,0,0,0,24,.83,12.93,12.93,0,0,0,4-10.38c-1-11.4-17.51-21.39-36.8-22.31C98.3,139.72,85.89,144.85,81.82,152.64Z"/></g><path class="cls-5" d="M121,182.34c-.92,0-1.84,0-2.77-.05-21.74-.85-39.29-11-39.95-23.07a13.9,13.9,0,0,1,4.4-10.58c6.48-6.58,19.32-10.32,33.51-9.77,21.75.85,39.29,11,40,23.07h0a13.87,13.87,0,0,1-4.39,10.58C145.71,178.67,134.1,182.34,121,182.34Zm-7.62-40c-12.15,0-22.8,3.28-28.22,8.78a10.38,10.38,0,0,0-3.4,7.95c.54,10,17.31,19,36.61,19.78,13.25.52,25.08-2.83,30.9-8.73a10.34,10.34,0,0,0,3.39-8h0c-.54-10-17.3-19-36.6-19.78C115.18,142.31,114.28,142.3,113.4,142.3Z"/><path class="cls-10" d="M154.42,163.51c-.76,10.32-16.42,17.89-36.08,17.12-20.54-.81-37.68-10.4-38.28-21.43a11.06,11.06,0,0,1,1.63-6.36,10.7,10.7,0,0,0,0,1.39c.6,11,17.74,20.62,38.28,21.43C136.29,176.3,149.86,171.18,154.42,163.51Z"/><path class="cls-5" d="M121.15,182.1c-1,0-1.9,0-2.87,0-10.15-.4-19.83-2.9-27.25-7.06-7.67-4.29-12.07-9.87-12.39-15.71a12.5,12.5,0,0,1,1.83-7.17,1.42,1.42,0,0,1,1.65-.63,1.45,1.45,0,0,1,1,1.48,9.36,9.36,0,0,0,0,1.19c.26,4.83,4.15,9.59,10.94,13.39,7,3.94,16.26,6.32,26,6.7,15.43.6,28.77-4,33.2-11.46a1.42,1.42,0,0,1,2.64.83C155,174.4,140.34,182.1,121.15,182.1ZM81.48,159.18c.29,4.81,4.17,9.54,10.94,13.33,7,3.94,16.26,6.32,26,6.7,13.87.54,25.81-3.14,31.35-9-6.93,4.7-17.84,7.33-29.85,6.86-10.15-.4-19.83-2.91-27.25-7.06C87.14,166.94,83.32,163.2,81.48,159.18Z"/><path class="cls-12" d="M122.92,155.12c-2.66-.54-14.58,5.46-14,9.83.49,4,14.63,8.59,19.07,3.18C131.34,164,125.34,155.61,122.92,155.12Z"/><path class="cls-12" d="M113,150.12c1.24,1.4-5.76,10.66-12.34,11.89-6,1.12-15.15-5.71-7.82-10.29C98.41,148.23,111.86,148.85,113,150.12Z"/><path class="cls-13" d="M93.39,127.74s-7.88,7.26-7.08,15,16.39,23.9,70.92,32,72-3.76,75.48-9.67-2.15-21-2.15-21Z"/><g class="cls-4"><path class="cls-14" d="M233.84,160.77a9.65,9.65,0,0,1-1.11,4.31c-3.5,5.91-21,17.73-75.49,9.67s-70.11-24.17-70.91-32c-.5-4.84,2.36-9.48,4.59-12.29a12.25,12.25,0,0,0-.45,4.64c.81,7.79,16.39,23.91,70.92,32C206.79,173.8,226.5,166.73,233.84,160.77Z"/></g><path class="cls-5" d="M190.63,179.24A231.14,231.14,0,0,1,157,176.47c-24.31-3.59-43.22-9.07-56.19-16.28C87,152.52,84.85,145.59,84.58,143c-.88-8.56,7.28-16.19,7.63-16.51A1.76,1.76,0,0,1,93.6,126L230.77,142.4a1.75,1.75,0,0,1,1.42,1.12c.61,1.62,5.83,16,2,22.45C232.65,168.61,224.25,179.24,190.63,179.24ZM94,129.57c-1.68,1.74-6.56,7.35-6,13,.35,3.34,4.32,8.92,14.43,14.54,12.43,6.91,31.45,12.4,55,15.88,49.74,7.35,69.75-2.09,73.73-8.83,2.33-3.94-.34-13.87-1.92-18.47Z"/><path class="cls-10" d="M208,147.06a23.66,23.66,0,0,1-2.74,8.31c-2.42,4.4-6.25,7.93-11.08,9.13-3.51.88-7.54.62-10.29,3-1.1.95-2,2.29-3.34,2.75a3.16,3.16,0,0,1-3.6-1.27c-.85-1.35-.64-3.31-1.87-4.33-1.4-1.18-3.53-.23-5,.86s-3.2,2.4-4.93,1.79-2.26-2.56-2.5-4.3-.43-3.69-1.81-4.77c-1.83-1.44-4.74-.26-5.92,1.76s-1.11,4.49-1,6.81c0,.15,0,.29,0,.44.08,1.8.15,3.6.23,5.4,0,.33,0,.65,0,1,.11,2.67-.23,6-2.75,6.94a4.14,4.14,0,0,1-4.5-1.73,8.92,8.92,0,0,1-1.36-4.92c-.15-4.11.81-8.22.4-12.31a7.91,7.91,0,0,0-1.76-4.66,3.78,3.78,0,0,0-4.59-.92c-1.4.87-1.82,2.76-3.08,3.82a4,4,0,0,1-4.49.26,5.18,5.18,0,0,1-2.37-4c-.09-.93,0-1.87,0-2.8-.16-3.42-2.66-5.3-5.45-6.67-4.17-2-3-4,.27-6.25L125,140a37.1,37.1,0,0,1,19.66-6.13c9-.17,17.7,3,26.33,5.53l1.45.43a221.36,221.36,0,0,0,28,6.2Q204.21,146.61,208,147.06Z"/><path class="cls-5" d="M150.38,182.43a6.17,6.17,0,0,1-4.9-2.63,10.71,10.71,0,0,1-1.68-5.86,47.38,47.38,0,0,1,.25-5.75,35.18,35.18,0,0,0,.16-6.46,6.15,6.15,0,0,0-1.31-3.65,2.1,2.1,0,0,0-2.38-.63,4.44,4.44,0,0,0-1.15,1.46,8.75,8.75,0,0,1-1.74,2.22,5.7,5.7,0,0,1-6.49.43,6.94,6.94,0,0,1-3.22-5.3,13,13,0,0,1,0-1.76,10.4,10.4,0,0,0,0-1.11h0c-.1-2.18-1.4-3.69-4.48-5.2-.86-.42-3.48-1.72-3.66-4.07-.16-2.19,1.79-3.84,3.71-5.17a38.92,38.92,0,0,1,21.17-6.82c8-.15,15.81,2.23,23.31,4.53l3.56,1.08a221.47,221.47,0,0,0,36.65,7.59,1.81,1.81,0,0,1,1.17.66,1.74,1.74,0,0,1,.35,1.3c-1,7.79-6.12,16.65-15.13,18.9a32.94,32.94,0,0,1-3.45.62c-2.36.34-4.59.67-6.13,2a11.63,11.63,0,0,0-.87.86,7.78,7.78,0,0,1-3,2.22,5,5,0,0,1-5.63-2,8.15,8.15,0,0,1-.92-2.42,3.22,3.22,0,0,0-.6-1.51c-.43-.36-1.65,0-2.83.92-1.68,1.25-4,2.95-6.55,2-2-.7-3.23-2.62-3.65-5.71l0-.26c-.18-1.37-.37-2.79-1.12-3.38a1.46,1.46,0,0,0-1.24-.23,3.28,3.28,0,0,0-2.1,1.49c-.89,1.52-.88,3.48-.78,5.87l.28,6.82c.19,4.76-1.12,7.67-3.91,8.65A4.84,4.84,0,0,1,150.38,182.43ZM141.2,153.8a5.86,5.86,0,0,1,4.26,1.92,9.42,9.42,0,0,1,2.21,5.67,38.11,38.11,0,0,1-.15,7.1,43.94,43.94,0,0,0-.24,5.32,7.2,7.2,0,0,0,1,4,2.44,2.44,0,0,0,2.5,1.1c1.55-.55,1.66-3.51,1.59-5.23l-.28-6.81c-.09-2.22-.22-5.25,1.25-7.77a6.78,6.78,0,0,1,4.45-3.16,5,5,0,0,1,4,.91c1.87,1.46,2.18,3.79,2.43,5.66l0,.25c.22,1.62.71,2.67,1.34,2.89.85.3,2.22-.72,3.31-1.54,2.7-2,5.37-2.31,7.17-.81a5.86,5.86,0,0,1,1.74,3.33,5.37,5.37,0,0,0,.48,1.41,1.46,1.46,0,0,0,1.57.56,4.91,4.91,0,0,0,1.64-1.33c.35-.37.72-.74,1.13-1.1,2.3-2,5.14-2.37,7.89-2.77a30.31,30.31,0,0,0,3.11-.56c6.72-1.68,10.88-8.25,12.21-14.25a223.53,223.53,0,0,1-35.4-7.49c-1.2-.35-2.39-.72-3.59-1.09-7.24-2.21-14.73-4.51-22.22-4.37a35.38,35.38,0,0,0-19.26,6.21c-1.86,1.28-2.16,1.89-2.21,2s.38.55,1.72,1.21c2.65,1.3,6.2,3.56,6.42,8.14h0a13.16,13.16,0,0,1,0,1.41,11.46,11.46,0,0,0,0,1.32,3.43,3.43,0,0,0,1.52,2.62,2.27,2.27,0,0,0,2.47-.09,5.61,5.61,0,0,0,1-1.37,7.28,7.28,0,0,1,2.27-2.6A4.78,4.78,0,0,1,141.2,153.8Z"/><g class="cls-4"><path class="cls-14" d="M151.4,180.52a4.14,4.14,0,0,1-4.5-1.73,8.92,8.92,0,0,1-1.36-4.92c-.15-4.11.81-8.22.4-12.31a7.91,7.91,0,0,0-1.76-4.66,3.78,3.78,0,0,0-4.59-.92c-1.4.87-1.82,2.76-3.08,3.82a4,4,0,0,1-4.49.26,5.18,5.18,0,0,1-2.37-4c-.09-.93,0-1.87,0-2.8-.16-3.42-2.66-5.3-5.45-6.67-4.17-2-3-4,.27-6.25L125,140c2.81,3.19,6.9,8,7.88,9.95,1.54,3.06,5.59.86,9,1.1,8,.56,7.73,7.39,7.56,16.28-.22,10.56,3.11,6.92,4.69,5.27,0,.33,0,.65,0,1C154.26,176.25,153.92,179.63,151.4,180.52Z"/></g><g class="cls-4"><path class="cls-14" d="M204.34,153.13a29.22,29.22,0,0,0-3.87-7.1,221.36,221.36,0,0,1-28-6.2c-.64,0-1.27.12-1.91.19-5.6.63-11.15,1.69-16.69,2.74a25,25,0,0,0-5.79,1.6,12.59,12.59,0,0,0-3.64,2.53,1.47,1.47,0,0,0-.58,1.27c.11.46.61.71,1,.88,4.58,1.85,9.3,3.32,14.05,4.71-2.85.22-5.08,2.86-5.72,5.66-.46,2-.65,5.81.64,7.79,0-.15,0-.29,0-.44-.1-2.32-.16-4.8,1-6.81s4.09-3.2,5.92-1.76c1.38,1.08,1.58,3,1.81,4.77s.85,3.73,2.5,4.3,3.47-.7,4.93-1.79,3.6-2,5-.86c1.23,1,1,3,1.87,4.33a3.16,3.16,0,0,0,3.6,1.27c1.38-.46,2.24-1.8,3.34-2.75,2.75-2.34,6.78-2.08,10.29-3,4.83-1.2,8.66-4.73,11.08-9.13C205,154.62,204.64,153.87,204.34,153.13Zm-22.47,10.51a3.63,3.63,0,0,1-2-.57c-2.31-1.24-4.7-2.95-7.28-2.51a27.91,27.91,0,0,0-2.93,1,3.31,3.31,0,0,1-3-.29,5.52,5.52,0,0,1-1.36-2.73,7.57,7.57,0,0,0-2.81-3.73A190.19,190.19,0,0,1,181.7,161c.62.25,1.33.62,1.44,1.28A1.36,1.36,0,0,1,181.87,163.64Z"/></g><path class="cls-15" d="M243.43,167.74a12.51,12.51,0,0,1-1.42,6,7.73,7.73,0,0,1-5.27,3.73c-14.24,3.22-45.93-18.8-77.58-27.42s-79.29,11-84.4-1.59a10,10,0,0,1-.5-5.77,15.69,15.69,0,0,1,1.95-4.89c5.08-8.62,17.35-15.63,17.35-15.63l7.6,1.32,5.6,1,122.69,21.31,2.36.4,6.27,1.1S243.63,158.84,243.43,167.74Z"/><g class="cls-4"><path class="cls-16" d="M243.43,167.74a12.51,12.51,0,0,1-1.42,6,7.73,7.73,0,0,1-5.27,3.73c-14.24,3.22-45.93-18.8-77.58-27.42s-79.29,11-84.4-1.59a10,10,0,0,1-.5-5.77,15.69,15.69,0,0,1,1.95-4.89c1.42,2,4.29,3.75,10.06,3.38,6.85-.44,14-1.21,19.25-1.83a4.29,4.29,0,0,0,2.82-6.94l-7.18-8.92,5.6,1,122.69,21.31,2.36.4.22,2.57L214.35,154a3.5,3.5,0,0,0-.41,6.56C221.86,164.07,234,168.5,243.43,167.74Z"/></g><g class="cls-7"><path class="cls-6" d="M242,173.71c-1.32-5.43-3.53-13.12-4.83-17.56a5.32,5.32,0,0,0-4.72-3.8L217,151.25l12.47-5.51,8.63,1.5S246.77,165.42,242,173.71Z"/></g><g class="cls-7"><path class="cls-6" d="M116.36,136.1l-18-7.41a10.23,10.23,0,0,0-9.75,1.06c-4.37,3.06-10.71,7.95-14.38,12.91,2.1-10.69,19.3-20.52,19.3-20.52l13.2,2.29C111.44,128.41,115.23,132.58,116.36,136.1Z"/></g><path class="cls-5" d="M233.6,179.5c-8.52,0-20.49-5.47-35.14-12.16-12.22-5.59-26.08-11.92-39.76-15.64-15.37-4.19-35.18-1.48-51.1.7-18.22,2.49-31.37,4.29-34.45-3.32-5.61-13.87,18.52-27.86,19.55-28.45a1.8,1.8,0,0,1,1.16-.21l144.52,25.1a1.75,1.75,0,0,1,1.27,1c.36.75,8.65,18.3,4.21,27.46a9.39,9.39,0,0,1-6.73,5.2A15.94,15.94,0,0,1,233.6,179.5ZM139.6,146a76.9,76.9,0,0,1,20,2.32c13.95,3.8,27.94,10.19,40.29,15.83,15.56,7.12,29,13.26,36.45,11.57a6,6,0,0,0,4.36-3.32c2.92-6-1.48-18.39-3.83-23.63L93.89,124c-6.58,3.91-21.13,14.88-17.51,23.82,2.06,5.1,16,3.19,30.74,1.17C117.08,147.59,128.53,146,139.6,146Z"/><path class="cls-17" d="M243.43,167.74v.44c0,.27,0,.53-.06.8l0,.39c0,.14,0,.27,0,.41s-.08.52-.13.78-.17.76-.27,1.12l-.12.35a8.46,8.46,0,0,1-.4,1c-.11.22-.22.44-.34.65l-.15.24a4.4,4.4,0,0,1-.3.45,6.26,6.26,0,0,1-.45.57l-.27.29a6.28,6.28,0,0,1-.54.49l-.06.06c-.2.16-.41.31-.63.46l-.36.21c-.12.07-.24.14-.37.2l-.39.18-.41.17-.43.16-.31.09-.6.16-.74.14-.37,0a11,11,0,0,1-1.18.11c-3.52.17-7.85-.79-12.81-2.48h0c-1.63-.55-3.33-1.19-5.09-1.89l-1.07-.43c-2.15-.86-4.37-1.82-6.67-2.83h0l-5.9-2.65-1.21-.56c-1.22-.55-2.46-1.11-3.7-1.69s-2.51-1.15-3.79-1.72h0c-1.28-.59-2.57-1.16-3.86-1.74l-2.62-1.16-2.63-1.15c-1.33-.57-2.66-1.14-4-1.7q-2.69-1.11-5.41-2.18l-1.36-.52q-1.37-.53-2.73-1l-1.38-.5c-3.66-1.31-7.35-2.49-11-3.5-12-3.28-26.36-2.47-39.79-.9l-.22,0-1.59.19-.23,0-2.47.31-.23,0-4.2.56-3.66.5-1.48.2-1,.14-1.45.2-.19,0-1.53.2c-7.38,1-13.82,1.59-18.53,1.1l-.94-.11a18,18,0,0,1-2.12-.44c-.26-.07-.51-.15-.76-.24l-.7-.27a7.16,7.16,0,0,1-2-1.29,5.34,5.34,0,0,1-1.26-1.84c-.12-.31-.23-.61-.32-.92l-.12-.46a9.64,9.64,0,0,1-.26-2.82c0-.17,0-.34,0-.52s.06-.46.09-.69,0-.18,0-.28,0-.05,0-.08c0-.21.08-.41.14-.62s0-.23.08-.34h0c.08.26.17.51.27.76,5.11,12.62,52.76-7,84.4,1.59s63.34,30.65,77.58,27.43a7.71,7.71,0,0,0,5.23-3.67,10.67,10.67,0,0,0,1.26-3.74A25.49,25.49,0,0,1,243.43,167.74Z"/><path class="cls-5" d="M233.59,179.5c-8.52,0-20.48-5.46-35.12-12.16-12.23-5.58-26.08-11.92-39.77-15.64-15.37-4.19-35.18-1.48-51.1.7-18.21,2.49-31.37,4.29-34.45-3.32a11.89,11.89,0,0,1-.34-7.85A1.74,1.74,0,0,1,74.46,140h0a1.74,1.74,0,0,1,1.66,1.23,5.11,5.11,0,0,0,.22.62c2.07,5.11,16,3.2,30.75,1.19,16.24-2.23,36.44-5,52.5-.62,13.95,3.8,27.94,10.2,40.29,15.84,15.56,7.11,29,13.25,36.44,11.57,3-.68,4.63-2.58,5.16-6a1.74,1.74,0,0,1,3.45.07c1.31,10.85-3.54,14.28-7.84,15.26h0A15.94,15.94,0,0,1,233.59,179.5Zm-94-33.48a76.93,76.93,0,0,1,20,2.32c13.95,3.8,27.95,10.19,40.29,15.84,13.8,6.3,25.92,11.84,33.69,11.84a12.49,12.49,0,0,0,2.75-.28h0a6,6,0,0,0,4.79-4.39,10.21,10.21,0,0,1-4,1.83c-8.59,1.94-21.86-4.12-38.66-11.8-12.22-5.58-26.08-11.91-39.76-15.64-15.37-4.19-35.18-1.48-51.1.7-14.74,2-26.16,3.58-31.62.08a10.13,10.13,0,0,0,.39,1.26c2.07,5.1,16,3.19,30.76,1.17C117.08,147.59,128.53,146,139.59,146Z"/><path class="cls-3" d="M238.08,147.24s-79.51,23.29-144.52-25.1A47.37,47.37,0,0,1,97.48,99c4.81-10.59,15.09-21.58,36.8-25.12,11.11-1.82,25.21-1.69,43.1,1.44,24.48,4.28,40,11.79,49.7,20.38,10.85,9.63,14.35,20.62,14.83,30A49.14,49.14,0,0,1,238.08,147.24Z"/><ellipse class="cls-6" cx="138.58" cy="87.72" rx="2.28" ry="1.11" transform="translate(-25.27 80.43) rotate(-29.79)"/><ellipse class="cls-6" cx="130.4" cy="83.39" rx="2.28" ry="1.11" transform="translate(-24.2 75.79) rotate(-29.79)"/><ellipse class="cls-6" cx="143.12" cy="80.49" rx="2.28" ry="1.11" transform="translate(-19.12 55.17) rotate(-20.48)"/><path class="cls-6" d="M150.41,87.53c-1.06.67-2.19.8-2.52.29s.28-1.49,1.34-2.16,2.2-.8,2.52-.29S151.48,86.85,150.41,87.53Z"/><ellipse class="cls-6" cx="162.02" cy="92.86" rx="2.28" ry="1.11" transform="translate(-14.89 152.68) rotate(-48.5)"/><ellipse class="cls-6" cx="176.31" cy="96.62" rx="2.28" ry="1.11" transform="translate(28.16 232.54) rotate(-71.26)"/><path class="cls-6" d="M193.63,98.9c.06,1.26-.39,2.31-1,2.34s-1.15-1-1.21-2.23.38-2.31,1-2.34S193.57,97.64,193.63,98.9Z"/><ellipse class="cls-6" cx="204.66" cy="96.95" rx="1.11" ry="2.28" transform="translate(-21.12 79.46) rotate(-20.92)"/><ellipse class="cls-6" cx="149.82" cy="95.84" rx="2.28" ry="1.11" transform="translate(-15.58 161.21) rotate(-54.17)"/><ellipse class="cls-6" cx="164.68" cy="100.76" rx="2.28" ry="1.11" transform="translate(6.13 210.9) rotate(-66.25)"/><ellipse class="cls-6" cx="183.62" cy="105.12" rx="2.28" ry="1.11" transform="translate(59.29 276.31) rotate(-83.8)"/><ellipse class="cls-6" cx="200.82" cy="105.65" rx="1.11" ry="2.28" transform="translate(-16.91 41.74) rotate(-11.39)"/><ellipse class="cls-6" cx="212.51" cy="103.3" rx="1.11" ry="2.28" transform="translate(-23.62 94.66) rotate(-23.83)"/><path class="cls-6" d="M216.6,95.69c.76,1,1,2.13.49,2.49s-1.5-.15-2.26-1.16-1-2.12-.48-2.49S215.85,94.68,216.6,95.69Z"/><g class="cls-4"><path class="cls-5" d="M238.08,147.24s-79.51,23.29-144.52-25.1A47.37,47.37,0,0,1,97.48,99c-.31,6.37,4,12.73,6.85,17,14.58,22.25,80.94,39.93,122,23.49,7.56-3,13.16-8.46,15.62-13.87A49.14,49.14,0,0,1,238.08,147.24Z"/></g><g class="cls-7"><path class="cls-6" d="M237.55,146.7l-.09,0c4.18-14,9.43-54.43-62.48-67-52.92-9.25-72.67,7.71-79.91,23.73,5.38-17.14,23.4-38.83,81.78-28.63C264.41,90.13,237.55,146.7,237.55,146.7Z"/></g><path class="cls-5" d="M191.76,154.58h-1.57a181,181,0,0,1-47.09-6.42,153.13,153.13,0,0,1-50.57-24.61,1.77,1.77,0,0,1-.69-1.18c-.11-.89-2.58-21.9,13.18-36.94,14.39-13.73,38.83-17.69,72.65-11.77C209.42,79.2,230,90.74,238.93,108c10.17,19.67,1.12,39.2.73,40a1.75,1.75,0,0,1-1.09.92C238.38,149,218.88,154.58,191.76,154.58ZM95.23,121.21c33,24.29,69.77,29.66,94.87,29.88a186.68,186.68,0,0,0,46.72-5.31c1.46-3.59,7.35-20.14-1-36.26s-28.15-27.09-58.74-32.44C144.42,71.37,121,75,107.46,87.9,94.52,100.23,95,117.5,95.23,121.21Z"/><path class="cls-18" d="M174.69,132.92a27.37,27.37,0,0,1-10,1.27s4.5-12.41,11.7-10.22C180.82,125.31,174.69,132.92,174.69,132.92Z"/><g class="cls-7"><path class="cls-6" d="M177.85,127.25a3.45,3.45,0,0,0-.48-.2c-4.86-1.48-8.48,3.68-10.33,7.19-.8,0-1.57,0-2.3-.05,0,0,4.49-12.41,11.7-10.22C178,124.46,178.23,125.77,177.85,127.25Z"/></g><path class="cls-5" d="M150.91,124.55a22.56,22.56,0,0,0,4.8,4.48,19,19,0,0,0,5.68,2.68,22.68,22.68,0,0,0,3.1.62c.53,0,1.06.12,1.6.11l.8,0,.82,0a27,27,0,0,0,6.47-1.19l-.85.57a22.75,22.75,0,0,0,1.78-2.62,9.59,9.59,0,0,0,1.11-2.64,1.48,1.48,0,0,0,0-.74s0,0,0,0a.67.67,0,0,0-.19-.1l-.09,0-.14,0-.3-.08c-.2,0-.4-.06-.6-.06a4.23,4.23,0,0,0-1.17.12,9,9,0,0,0-4.34,3.56,24.78,24.78,0,0,0-1.68,2.72c-.25.48-.49,1-.72,1.45s-.44,1-.61,1.46v0a1.74,1.74,0,0,1-3.26-1.23c.24-.63.46-1.16.72-1.72s.52-1.09.81-1.63a25.06,25.06,0,0,1,1.94-3.14,16.74,16.74,0,0,1,2.58-2.84,9.67,9.67,0,0,1,3.66-2A7.6,7.6,0,0,1,175,122a8.35,8.35,0,0,1,1.12.13l.53.13.27.07.32.11a4.24,4.24,0,0,1,1.28.77,3.71,3.71,0,0,1,.93,1.37,4.45,4.45,0,0,1,.21.75,5.6,5.6,0,0,1,.05.69,3.35,3.35,0,0,1,0,.64,5.4,5.4,0,0,1-.08.58,12.8,12.8,0,0,1-1.51,3.7c-.31.54-.64,1.06-1,1.57s-.68,1-1.1,1.51a1.61,1.61,0,0,1-.83.56h0a33.86,33.86,0,0,1-7.27,1.38,26.63,26.63,0,0,1-3.79,0,20.45,20.45,0,0,1-3.78-.7,16.26,16.26,0,0,1-6.62-3.86,15.24,15.24,0,0,1-2.38-2.95,11.85,11.85,0,0,1-1.5-3.45.58.58,0,0,1,1-.51Z"/><path class="cls-5" d="M198.81,113.36c-1.1.48-2.23,1-3.29,1.5s-2.13,1.07-3.14,1.67c-.25.14-.5.28-.75.44l-.74.46c-.48.33-1,.62-1.44,1a27.9,27.9,0,0,0-2.71,2.13l-1.13-3c1.21.06,2.35.18,3.51.34a32,32,0,0,1,3.46.68,20,20,0,0,1,3.38,1.13,10.16,10.16,0,0,1,3.1,2,.58.58,0,0,1,0,.83.59.59,0,0,1-.64.13l0,0a15.7,15.7,0,0,0-3.08-.83c-1.06-.18-2.14-.32-3.23-.42s-2.19-.18-3.29-.24-2.22-.1-3.27-.12a1.7,1.7,0,0,1-1.69-1.73,1.67,1.67,0,0,1,.55-1.24h0a22.42,22.42,0,0,1,3.12-2.47,21.28,21.28,0,0,1,7.24-3,15.32,15.32,0,0,1,3.9-.34.59.59,0,0,1,.56.63.59.59,0,0,1-.36.5Z"/><path class="cls-6" d="M143.29,98.84a6,6,0,0,0-5.18,0,10.44,10.44,0,0,0-5.2,6c-1.41,3.75-1,7.77.76,10.39a6.54,6.54,0,0,0,2.58,2.3c3.8,1.84,8.45-.86,10.39-6S147.08,100.68,143.29,98.84Z"/><path class="cls-19" d="M138.76,118.46a6,6,0,0,1-2.64-.62,7,7,0,0,1-2.71-2.4c-1.87-2.78-2.19-7-.8-10.68A10.83,10.83,0,0,1,138,98.58a6.31,6.31,0,0,1,5.45,0h0c3.93,1.91,5.5,7.78,3.5,13.08a10.64,10.64,0,0,1-5.68,6.32A6.74,6.74,0,0,1,138.76,118.46Zm2-19.88a6.16,6.16,0,0,0-2.54.57,10.17,10.17,0,0,0-5,5.83c-1.32,3.52-1,7.49.73,10.11a6.27,6.27,0,0,0,2.46,2.19,5.57,5.57,0,0,0,4.63.09,10,10,0,0,0,5.32-6c1.89-5,.46-10.53-3.19-12.3A5.38,5.38,0,0,0,140.78,98.58Z"/><path class="cls-20" d="M143.29,98.84a6,6,0,0,0-5.18,0,8.13,8.13,0,0,0-.83.83c-.59.67-1.14,1.75-.76,2.52s1.12.62,1.7.91a2.73,2.73,0,0,1,.92,3.31,2.12,2.12,0,0,1-2.79,1.37c-.65-.37-1.2-1.24-1.94-1-.55.17-.9.87-1.11,1.53a10.4,10.4,0,0,0,.3,6.74c0,.07.05.13.07.19a6.54,6.54,0,0,0,2.58,2.3c3.8,1.84,8.44-.86,10.39-6S147.08,100.68,143.29,98.84Z"/><ellipse class="cls-5" cx="141.21" cy="109.65" rx="8.76" ry="6.18" transform="matrix(0.26, -0.96, 0.96, 0.26, -1.73, 217.03)"/><path class="cls-6" d="M138.4,102.88c-.59-.28-1.38-.24-1.7-.91s.16-1.85.75-2.52a8.13,8.13,0,0,1,.83-.83,10.48,10.48,0,0,0-5.2,6c-1.41,3.75-1,7.77.77,10.4,0-.07-.06-.13-.08-.19a10.43,10.43,0,0,1-.3-6.75c.21-.66.56-1.36,1.11-1.53.74-.23,1.29.64,1.94,1a2.13,2.13,0,0,0,2.79-1.37A2.73,2.73,0,0,0,138.4,102.88Z"/><path class="cls-5" d="M140.79,98.26a5.72,5.72,0,0,1,2.5.58c3.79,1.84,5.29,7.52,3.35,12.69-1.53,4.07-4.74,6.61-7.88,6.61a5.76,5.76,0,0,1-2.51-.58,6.54,6.54,0,0,1-2.58-2.3c-1.77-2.62-2.17-6.64-.76-10.39a10.44,10.44,0,0,1,5.2-6,6.42,6.42,0,0,1,2.68-.61m0-2a8.42,8.42,0,0,0-3.51.79,12.48,12.48,0,0,0-6.25,7.12c-1.61,4.27-1.23,9,1,12.23a8.51,8.51,0,0,0,3.37,3,7.62,7.62,0,0,0,3.38.78c4.06,0,8-3.18,9.76-7.91,2.33-6.21.42-12.89-4.35-15.21a7.82,7.82,0,0,0-3.38-.78Z"/><path class="cls-21" d="M112.51,44.18v0h0Z"/><path class="cls-22" d="M254.4,61.43a13.93,13.93,0,0,0-4.53-6.69,16.12,16.12,0,0,0-1.71-1.23l-.22-.14-.26-.15-.43-.24c-.39-.2-.72-.35-1.07-.49a12.17,12.17,0,0,0-4.31-.89,9.63,9.63,0,0,0-7.11,2.68,9.53,9.53,0,0,0-1.08,1.33l-.21.36-.1.18,0,.07-.07.14a2.69,2.69,0,0,0-.14.32c-.06.16-.12.32-.17.48a6.51,6.51,0,0,0-.1,3.41,7.66,7.66,0,0,0,3.63,4.74l.59.3.11.06h0l.06,0,.12,0,.27.1a5.09,5.09,0,0,0,1.33.32,5.42,5.42,0,0,0,2.15-.19,3.92,3.92,0,0,0,2.15-1.55,2.94,2.94,0,0,0,.3-.58l.09-.2a.45.45,0,0,0,0-.39A.55.55,0,0,0,243,63l-.18.08-.18.08a3.55,3.55,0,0,1-.49.18,4.09,4.09,0,0,1-.78.13,3,3,0,0,1-.93-.12,2,2,0,0,1-.86-.45c-.12-.08-.26-.23-.23-.28h0l0,0a.39.39,0,0,1-.1-.08l-.1-.08-.05,0,0,0c.23.12.06,0,.11,0h0l-.19-.24a2.85,2.85,0,0,1-.52-2,1.67,1.67,0,0,1,.13-.45,1.76,1.76,0,0,1,.09-.2l.06-.09s0-.07,0-.05h0a1.64,1.64,0,0,1,.14-.22,1,1,0,0,1,.08-.14l0-.06v0l-.08.14,0,0,.11-.13a4.61,4.61,0,0,1,.51-.48,4.36,4.36,0,0,1,2.83-1,5,5,0,0,1,1.69.33,2.26,2.26,0,0,1,.34.16l.3.15,0,0,0,0,.13.07a8.81,8.81,0,0,1,.94.66,8.51,8.51,0,0,1,2.68,3.61,6.92,6.92,0,0,1,.44,2.14,6.34,6.34,0,0,1-.05,1.07,5.24,5.24,0,0,1-.18,1,4.91,4.91,0,0,1-.15.51l-.18.46a5.2,5.2,0,0,1-.29.56v0s0,0,0,0l0,0,0,.06-.09.14-.16.27a15.44,15.44,0,0,1-1.5,2,16,16,0,0,1-3.59,3.15,14.92,14.92,0,0,1-4,1.7l-.47.1h0a22.55,22.55,0,0,1-10.86-3.12c-10.2-5.22-11.22-12.55-10.73-16.86a4.52,4.52,0,0,0,3.13-3.54,4.32,4.32,0,1,0-8.51-1.52,4.47,4.47,0,0,0,.44,2.9c-2.07,1.55-6.18,2.83-14.17.46C186,50.91,185,40.13,185.9,32.69h0Q191,27,196.31,21.4q-3.21-8.55-6.82-17-6.33,6.72-12.3,13.63,3,6.91,5.72,13.87h0c-1.63,7.33-6.13,17.41-18.24,16.33-8.32-.55-11.74-3.18-13.14-5.36a4.38,4.38,0,1,0-7.18-4,4.49,4.49,0,0,0,1.78,4.46c-1.08,4.21-4.62,10.61-15.88,12a22.6,22.6,0,0,1-11.54-.93h0A12.1,12.1,0,0,1,117,53a12.7,12.7,0,0,1-1.52-1.72,16.7,16.7,0,0,1-2.28-4.41,21,21,0,0,1-.71-2.56l0-.08v0h0l0-.17-.06-.36c0-.18,0-.33,0-.54a7.72,7.72,0,0,1,2-5.62,9.76,9.76,0,0,1,4.4-2.76l.64-.17.33-.07.28-.06.39-.06.24,0,.58,0a6.49,6.49,0,0,1,2.22.42,5.67,5.67,0,0,1,3,2.63,5.47,5.47,0,0,1,.32.85l0,.11v0c0-.2,0,0,0-.08v0l0,.07a2.87,2.87,0,0,0,0,.31c0,.14,0,.12,0,.17l0,.12a2.87,2.87,0,0,1-.27,1.38,3.66,3.66,0,0,1-.86,1.17,4.9,4.9,0,0,1-1.23.77l-.16.07-.09,0,0,0h0l-.41.09a1.78,1.78,0,0,1-.52.08,2.88,2.88,0,0,1-1.11-.13,3.51,3.51,0,0,1-1.44-.92,3.42,3.42,0,0,1-.29-.39L120.4,41a.59.59,0,0,0-.41-.24.55.55,0,0,0-.63.42h0l0,.22a2.42,2.42,0,0,0,0,.69,3,3,0,0,0,.3,1.12,4.16,4.16,0,0,0,1,1.38,6,6,0,0,0,2.05,1.19,7,7,0,0,0,.69.18,3.58,3.58,0,0,0,.37.06l.45,0h.37l.26,0,.84-.07a8.57,8.57,0,0,0,5.9-3.26,8.1,8.1,0,0,0,1-1.67,7.31,7.31,0,0,0,.5-1.93c0-.19,0-.4,0-.61V38c0-.11,0-.21,0-.31v-.1c0-.09,0,.15,0-.19v-.06l0-.23a9,9,0,0,0-.5-1.84,10.72,10.72,0,0,0-6.21-5.78,13.55,13.55,0,0,0-4.83-.91c-.42,0-.84,0-1.26.05-.21,0-.48.05-.72.08l-.47.07-.22,0-.14,0-.28.05-.55.13c-.38.09-.74.19-1.11.31a15.06,15.06,0,0,0-7.28,4.89,12.17,12.17,0,0,0-2.82,7.46,11.25,11.25,0,0,0,.14,1.93c0,.3.12.67.19,1s.15.54.23.81a27.4,27.4,0,0,0,1.17,3.05,19.65,19.65,0,0,0,2.71,4.3h0q4.86,11.28,9.11,22.7a301.26,301.26,0,0,1,109.8,19.63q7.91-9.19,16.35-18.07h0a19.41,19.41,0,0,0,4-2.87,20.59,20.59,0,0,0,2.18-2.38l.51-.69c.14-.21.27-.39.45-.69a10.91,10.91,0,0,0,.82-1.64A11.18,11.18,0,0,0,254.4,61.43Zm-9.62-3.3h0S244.88,58.19,244.78,58.13Zm-89.06,4.63a4.87,4.87,0,0,1-5.36,4.16,4.66,4.66,0,1,1,5.36-4.16Zm21.17,12.07q-1.9-6.42-4-12.83,4-5.43,8.23-10.75,2.11,6.47,4,12.94Q180.89,69.46,176.89,74.83Zm33.56-1.39a4.8,4.8,0,0,1-5.95,3.17,4.85,4.85,0,0,1-3.57-5.76,4.74,4.74,0,0,1,6-3.25A4.81,4.81,0,0,1,210.45,73.44Z"/><path class="cls-23" d="M250.91,68.46a14.69,14.69,0,0,1-12.53,7.28h0a22.55,22.55,0,0,1-10.86-3.12c-10.2-5.22-11.22-12.55-10.73-16.87a12.14,12.14,0,0,1,.87-3.58l-3.85-1.1a5.49,5.49,0,0,1-2,2.53c-2.07,1.55-6.18,2.83-14.17.46C186.09,50.91,185.12,40.13,186,32.69h0a33.94,33.94,0,0,1,1.63-7.45c-.6-.12-1.21-.22-1.81-.33l-1.91-.34a33.55,33.55,0,0,1-.9,7.29c-1.63,7.33-6.13,17.41-18.24,16.33-8.33-.55-11.75-3.19-13.14-5.36a5.28,5.28,0,0,1-1-3l-4-.3a12.69,12.69,0,0,1-.45,3.79c-1.09,4.22-4.63,10.62-15.89,12a22.6,22.6,0,0,1-11.54-.93,0,0,0,0,0,0,0,14.72,14.72,0,0,1-9-11.08l-2.93.14c1.43,3.15,2.84,6.3,4.18,9.46h0q4.86,11.28,9.1,22.7A301.27,301.27,0,0,1,230,95.16q7.91-9.19,16.35-18.07,3.57-3.78,7.27-7.49ZM150.45,66.92a4.66,4.66,0,1,1,5.36-4.16A4.87,4.87,0,0,1,150.45,66.92ZM177,74.83q-1.89-6.42-4-12.83,4-5.43,8.23-10.75,2.12,6.47,4,12.94Q181,69.46,177,74.83Zm33.57-1.39a4.8,4.8,0,0,1-5.95,3.17A4.85,4.85,0,0,1,201,70.85a4.74,4.74,0,0,1,6-3.25A4.81,4.81,0,0,1,210.54,73.44Z"/><path class="cls-23" d="M177.28,18q6-6.92,12.3-13.63,3.61,8.49,6.82,17Q190.08,28,184.14,34.78,180.92,26.35,177.28,18Z"/><path class="cls-23" d="M128.6,57.83l-.75.22a20.67,20.67,0,0,1-2.33.51,15.8,15.8,0,0,1-3.81.12,15.11,15.11,0,0,1-7.48-2.83,17.68,17.68,0,0,1-2.3-2.05,19.85,19.85,0,0,1-3.56-5.28,27.4,27.4,0,0,1-1.17-3.05c-.08-.27-.15-.54-.23-.81s-.15-.71-.19-1a11.25,11.25,0,0,1-.14-1.93,12.17,12.17,0,0,1,2.82-7.46,15.06,15.06,0,0,1,7.28-4.89c.37-.12.73-.22,1.11-.31l.55-.13.28-.05.14,0,.22,0,.47-.07c.24,0,.51-.07.72-.08.42,0,.84-.05,1.26-.05a13.55,13.55,0,0,1,4.83.91,10.72,10.72,0,0,1,6.21,5.78,9,9,0,0,1,.5,1.84l0,.23v.06c0,.34,0,.1,0,.19v.1c0,.1,0,.2,0,.31v.53c0,.21,0,.42,0,.61a7.72,7.72,0,0,1-.5,1.93,8.1,8.1,0,0,1-1,1.67,8.59,8.59,0,0,1-5.9,3.26l-.84.07-.26,0h-.37l-.45,0a3.58,3.58,0,0,1-.37-.06,7,7,0,0,1-.69-.18,6,6,0,0,1-2-1.19,4.16,4.16,0,0,1-1-1.38,3,3,0,0,1-.3-1.12,2.42,2.42,0,0,1,0-.69l0-.22h0a.55.55,0,0,1,.63-.42.59.59,0,0,1,.41.24l.09.15a3.42,3.42,0,0,0,.29.39,3.51,3.51,0,0,0,1.44.92,2.88,2.88,0,0,0,1.11.13,1.78,1.78,0,0,0,.52-.08l.41-.09h0l0,0,.08,0,.17-.07a4.9,4.9,0,0,0,1.23-.77,3.66,3.66,0,0,0,.86-1.17A2.87,2.87,0,0,0,127,39l0-.12s0,0,0-.17l-.06-.31v-.09s0-.12,0,.08v0l0-.11a5.47,5.47,0,0,0-.32-.85,5.67,5.67,0,0,0-3-2.63,6.53,6.53,0,0,0-2.22-.42l-.58,0-.24,0-.39.06-.28.06-.33.07-.64.17a9.76,9.76,0,0,0-4.4,2.76,7.92,7.92,0,0,0-2,4.43,6.76,6.76,0,0,0,0,1.19c0,.21,0,.36.05.54l.06.36,0,.18s0-.05,0,0v.06l0,.08a21,21,0,0,0,.71,2.56,16.7,16.7,0,0,0,2.28,4.41A12.7,12.7,0,0,0,117.13,53a11.54,11.54,0,0,0,1.67,1.34,11.12,11.12,0,0,0,3.54,1.51,14.55,14.55,0,0,0,3.1.4,18,18,0,0,0,2.07,0l.79-.07a.92.92,0,0,1,1,.79.9.9,0,0,1-.66.91Z"/><path class="cls-23" d="M229.23,74.52l.74.3a17.25,17.25,0,0,0,2,.63A14.22,14.22,0,0,0,235,76a13.66,13.66,0,0,0,3.8-.32,12.43,12.43,0,0,0,2-.68,12,12,0,0,0,2-1,15.86,15.86,0,0,0,3.6-3.15,15.44,15.44,0,0,0,1.5-2l.16-.27.09-.14,0-.06,0,0s-.07.11,0,0v0a5.2,5.2,0,0,0,.29-.56l.18-.46a4.91,4.91,0,0,0,.15-.51,5.24,5.24,0,0,0,.18-1,6.34,6.34,0,0,0,.05-1.07,6.92,6.92,0,0,0-.44-2.14,8.51,8.51,0,0,0-2.68-3.61,8.81,8.81,0,0,0-.94-.66l-.13-.07,0,0h0l.06,0-.09,0-.3-.15a2.87,2.87,0,0,0-.34-.16,5,5,0,0,0-1.69-.33,4.36,4.36,0,0,0-2.83,1,4.61,4.61,0,0,0-.51.48l-.11.13,0,0,.08-.14v0l0,.06a1,1,0,0,0-.08.14,1.64,1.64,0,0,0-.14.22h0s0,0,0,.05l-.07.09c0,.07-.06.13-.08.2a1.67,1.67,0,0,0-.13.45,2.85,2.85,0,0,0,.52,2l.19.24h0c-.05,0,.12.07-.11,0l0,0,.05,0,.1.08.09.08,0,0h0c0,.05.11.2.23.28a2,2,0,0,0,.86.45,3,3,0,0,0,.93.12,4.09,4.09,0,0,0,.78-.13,3.55,3.55,0,0,0,.49-.18l.18-.08L243,63a.55.55,0,0,1,.69.23.45.45,0,0,1,0,.39l-.09.2a2.94,2.94,0,0,1-.3.58A3.92,3.92,0,0,1,241.23,66a5.42,5.42,0,0,1-2.15.19,5.09,5.09,0,0,1-1.33-.32l-.27-.1-.12,0-.06,0h0l-.11-.06-.59-.3a7.66,7.66,0,0,1-3.63-4.74,6.51,6.51,0,0,1,.1-3.41c.05-.16.11-.32.17-.48a2.69,2.69,0,0,1,.14-.32.91.91,0,0,0,.07-.14l0-.07.1-.18.21-.36a9,9,0,0,1,8.19-4,12.17,12.17,0,0,1,4.31.89c.35.14.67.29,1.07.49l.43.24.26.15.22.14A16.12,16.12,0,0,1,250,54.74a13.93,13.93,0,0,1,4.53,6.69,11.18,11.18,0,0,1-.23,7.39,10.91,10.91,0,0,1-.82,1.64c-.18.3-.31.48-.45.69l-.51.69a20.59,20.59,0,0,1-2.18,2.38,19.38,19.38,0,0,1-5.16,3.48,16.53,16.53,0,0,1-14-.08A20,20,0,0,1,229,76.46l-.66-.44a.87.87,0,0,1-.28-1.23.91.91,0,0,1,1.11-.29Z"/><path class="cls-23" d="M152.94,40.34a4.32,4.32,0,1,1-3.46-5.16A4.39,4.39,0,0,1,152.94,40.34Z"/><path class="cls-23" d="M219.91,52.22a4.32,4.32,0,1,1-3.47-5.16A4.41,4.41,0,0,1,219.91,52.22Z"/><g class="cls-4"><path class="cls-5" d="M228.89,96.13s-53.16-21-108.78-19.78a59.9,59.9,0,0,1-7.42-18.54c3.71,3.7,4.83,8.83,8.65,11.12,6.18,3.71,59.34,1.24,101.37,19.78,5.76,2.54,11.12-1.24,16.07-3.71A29.26,29.26,0,0,1,228.89,96.13Z"/></g><text class="cls-24" transform="translate(39.94 322.92)"><tspan class="cls-25">B</tspan><tspan class="cls-26" x="41.56" y="0">U</tspan><tspan class="cls-27" x="75.97" y="0">R</tspan><tspan class="cls-28" x="108.02" y="0">G</tspan><tspan class="cls-29" x="143.58" y="0">E</tspan><tspan x="173.08" y="0">R</tspan></text><path class="cls-30" d="M136.18,333.68a11.94,11.94,0,0,1,9,3.64q4.72,4.9,4.72,16.66,0,3.39-.3,6.66-.91,8.61-4.61,12.54c.89,1.58,1.76,3.15,2.61,4.73q1.88,3,3.88,3h-3q-3.89-.12-5.58,0c0-.29-.1-.43-.18-.43h-.24c-.24,0-.53-.24-.85-.72-.81-1.3-1.41-2.23-1.82-2.79a13.36,13.36,0,0,1-3.21.36q-6.36,0-9.81-3.57-5.15-5.28-5.15-18.48Q121.64,333.68,136.18,333.68Zm4.48,20.9q0-16.83-4.72-16.84c-1.42,0-2.61,1.48-3.58,4.42q-1.58,4.92-1.57,13.7A46.23,46.23,0,0,0,132.06,368q1.33,4.73,3.76,4.73Q140.67,372.76,140.66,354.58Z"/><path class="cls-30" d="M176.23,365.55V344c0-3.67-.06-5.94-.16-6.81a8.44,8.44,0,0,0-.87-2.76h8.17a13.43,13.43,0,0,0-.66,2.18q-.24,2.61-.24,12.72v15.27q0,6-1.58,8.6a7.62,7.62,0,0,1-2.24,2.49c-1.66,1.13-4.12,1.71-7.39,1.76a14.42,14.42,0,0,1-8.61-2.25,8.19,8.19,0,0,1-2.42-4.18,21.17,21.17,0,0,1-.79-5.75V349.37q0-7.64-.12-10.17a10.47,10.47,0,0,0-1-4.73c.53,0,1.35,0,2.49,0h7.81a13.64,13.64,0,0,0-.6,1.88,15.39,15.39,0,0,0-.31,3.15q-.18,5.58-.18,26.53a13.05,13.05,0,0,0,.67,5.09c.6,1.34,1.9,2,3.87,2s3.16-.6,3.64-1.81C176,370.46,176.23,368.54,176.23,365.55Z"/><path class="cls-30" d="M202.94,355.92l-.12,12.3c0,2.54,0,4,.06,4.3a1.12,1.12,0,0,0,1.21,1,14,14,0,0,0,1.58-.18,25.36,25.36,0,0,0,5.09-1,15.52,15.52,0,0,0,4.12-3.33q-.37,2.79-1.27,8.12H198.7q-3.51-.06-5.82,0a14.84,14.84,0,0,0,.61-1.69,9,9,0,0,0,.36-2.37q.19-3.27.19-12.36V349.92q0-4.55-.06-9a33,33,0,0,0-.37-4.24,10,10,0,0,0-.85-2.18c.73,0,1.88,0,3.46,0h17.39s-.07,1.07-.31,3.09l-.42,3.27a4,4,0,0,0-1.27-1.42,8.76,8.76,0,0,0-2.25-.33,64.69,64.69,0,0,0-6.48-.07v11.76h2.91a29.58,29.58,0,0,0,3.51-.12,5.43,5.43,0,0,0,2.25-.79v7c-.81-.65-2.31-1-4.49-1Z"/><path class="cls-30" d="M232.57,355.92l-.13,12.3c0,2.54,0,4,.06,4.3a1.13,1.13,0,0,0,1.22,1,14.18,14.18,0,0,0,1.57-.18,25.19,25.19,0,0,0,5.09-1A15.52,15.52,0,0,0,244.5,369c-.24,1.86-.67,4.57-1.27,8.12h-14.9q-3.53-.06-5.82,0a16.35,16.35,0,0,0,.6-1.69,8.53,8.53,0,0,0,.37-2.37q.18-3.27.18-12.36V349.92q0-4.55-.06-9a31.71,31.71,0,0,0-.36-4.24,11.17,11.17,0,0,0-.85-2.18c.72,0,1.88,0,3.45,0h17.39a28.24,28.24,0,0,1-.3,3.09l-.43,3.27a3.88,3.88,0,0,0-1.27-1.42,8.66,8.66,0,0,0-2.24-.33,64.9,64.9,0,0,0-6.49-.07v11.76h2.91a29.92,29.92,0,0,0,3.52-.12,5.44,5.44,0,0,0,2.24-.79v7c-.81-.65-2.3-1-4.49-1Z"/><path class="cls-30" d="M283.09,340.47l-.18,13q-.09,9.27,0,15.36.09,5.73,1.18,8.36h-11.9q-3.37-10.81-4.09-13.08-1.64-4.83-4.82-13.18L258.46,338l-.18,13q-.09,9.36.28,18.36a27.51,27.51,0,0,0,1.09,7.81H249.2a3.6,3.6,0,0,0,1.09-2.72c.05-2.31.12-4.61.18-6.91q.09-2.28.27-19.81l.09-8q.09-10.26-.18-16.27A35,35,0,0,0,249,313.21h14.18q.63,2.35,3.18,9.81l9.18,26.9.09-8.18q.09-9.54-.36-20c-.13-3.88-.61-6.73-1.46-8.54a30.12,30.12,0,0,1,3.36,0H285a24.15,24.15,0,0,0-1,3.45Q283.27,322.38,283.09,340.47Z"/></g></g></svg>