<svg xmlns="http://www.w3.org/2000/svg" viewBox="0 0 29.82 41.79"><defs><style>.cls-1,.cls-2{fill:#494b54;}.cls-2{font-size:7px;font-family:ArialRoundedMTBold, Arial Rounded MT Bold;}.cls-3{letter-spacing:-0.01em;}</style></defs><g id="Capa_2" data-name="Capa 2"><g id="Vista1"><g id="Iconos"><path class="cls-1" d="M26.66.23A1.07,1.07,0,0,0,25.78,0L.83,5.56h0l-.18,0,0,0-.14.07,0,0-.1.08,0,.06A.71.71,0,0,0,.2,6,.21.21,0,0,0,.16,6l-.06.1,0,.07,0,.12A.14.14,0,0,0,0,6.4s0,.09,0,.13V40.75a1,1,0,0,0,1,1H28.78a1,1,0,0,0,1-1V6.58a1,1,0,0,0-1-1H27.05V1A1.07,1.07,0,0,0,26.66.23ZM25,5.54H10.53L25,2.34Zm2.77,34.17H2.08V7.62H27.74Z"/><path class="cls-1" d="M14.91,25.36a7.24,7.24,0,1,0-7.23-7.24A7.25,7.25,0,0,0,14.91,25.36Zm0-12.39a5.16,5.16,0,1,1-5.15,5.15A5.16,5.16,0,0,1,14.91,13Z"/><text class="cls-2" transform="translate(5.57 34.53)">Me<tspan class="cls-3" x="9.99" y="0">n</tspan><tspan x="14.13" y="0">u</tspan></text></g></g></g></svg>