<svg xmlns="http://www.w3.org/2000/svg" viewBox="0 0 72.83 40.67"><defs><style>.cls-1{fill:#494b54;}</style></defs><g id="Capa_2" data-name="Capa 2"><g id="Vista1"><g id="Iconos"><path class="cls-1" d="M72.83,37.92a2.89,2.89,0,0,1-3,2.75H3a2.76,2.76,0,1,1,0-5.5H69.83A2.89,2.89,0,0,1,72.83,37.92ZM39.92,3.34a3.5,3.5,0,0,0-7,0,27.79,27.79,0,0,1,3.42-.22A28.32,28.32,0,0,1,39.92,3.34ZM67.15,32.73H5.69a30.83,30.83,0,0,1,61.46,0ZM32.9,7A31.93,31.93,0,0,0,10.53,29.86H17S20.65,14,32.9,7Z"/></g></g></g></svg>